<svg width="335" height="377" viewBox="0 0 335 377" fill="none" xmlns="http://www.w3.org/2000/svg">
    <path d="M212.85 104.15C210.191 99.8717 211.844 89.4869 212 84.381C212.134 80.0226 213.72 78.5951 215.639 75.0492C217.38 71.8314 218.162 68.7115 219.297 65.7612C223.775 54.1185 232.306 45.486 239.396 36.5608C241.007 34.5326 242.977 32.3602 244.438 30.7699C244.473 30.7327 245.153 28.2785 245.555 27.7968C246.057 27.1944 247.604 27.4736 248.253 26.9885C254.121 22.5997 260.632 16.4696 266.69 11.7864C271.641 7.95779 277.306 7.85318 283.242 5.37194C286.04 4.20261 288.41 2.99109 291.609 2.30519C292.817 2.04618 293.871 0.620372 295.14 0.44067C296.076 0.830446 297.006 1.23288 297.931 1.64797C299.572 2.31025 300.812 1.95084 301.65 0.570595C299.172 0.319181 304.509 -0.0739705 303.702 0.0120841C302.087 0.185037 307.963 1.25228 306.771 1.02871C308.928 1.43283 313.788 1.22697 316.218 0.959528C319.242 0.627121 322.622 -0.488214 325.784 0.433077C327.119 0.82201 333.41 2.09596 334.078 2.72702C336.886 5.37953 332.441 12.9515 331.69 16.0554C331.207 18.0506 331.419 21.2009 330.477 23.6687C329.809 25.421 327.657 25.0228 326.923 26.3667C326.063 27.9385 325.479 30.8736 325.022 32.3517C324.223 34.9283 322.994 37.9031 321.55 40.451C320.368 42.5366 319.512 43.8198 318.722 46.0741C318.315 47.2341 318.909 49.1754 318.312 50.2114C317.957 50.8282 316.088 51.0939 315.675 51.5849C313.98 53.5971 313.357 55.1284 312.34 56.933C311.313 58.7562 308.891 61.4686 307.946 63.0572C307.419 63.1854 306.894 63.3145 306.367 63.4428C306.263 64.3101 306.408 65.1385 306.803 65.9299C306.651 66.0826 304.239 67.7446 304.053 68.0222C303.597 68.6972 302.04 69.3856 301.531 70.0015C300.913 70.7507 300.346 73.3838 299.719 74.3244C299.416 74.7792 297.095 76.0245 296.586 76.5762C295.574 77.6713 294.566 79.5232 293.33 80.5094C291.299 82.1301 288.218 83.6774 285.788 85.2998C281.993 87.8342 280.758 90.7423 277.282 92.989C276.185 93.6977 274.234 92.8928 273.134 93.5298C271.749 94.3321 269.86 96.9467 268.371 97.8815C265.499 99.6861 262.193 100.682 259.198 102.196C258.72 102.437 256.39 104.023 255.901 104.158C254.486 104.549 251.801 104.489 250.758 104.894C246.643 106.491 245.016 107.593 240.63 108.384C239.905 108.514 238.295 109.228 237.639 109.399C236.436 108.718 235.14 108.556 233.753 108.916C232.982 109.655 232.209 110.391 231.431 111.122C228.49 111.287 228.439 109.49 226.36 109.425C225.021 109.383 221.646 111.027 220.974 110.817C219.385 110.32 219.079 108.578 217.968 107.925C216.404 107.006 214.068 106.109 212.85 104.15Z" fill="#FE9456"/>
    <path d="M193.188 8.60505C193.39 9.0117 192.253 10.1954 192.297 10.6704C192.35 11.2601 194.416 11.6389 194.605 12.2311C194.857 13.02 193.6 14.3859 193.908 15.1435C194.205 15.8724 195.985 15.999 196.285 16.7355C196.582 17.4653 195.651 18.708 195.958 19.4285C196.258 20.1355 197.837 20.4637 198.042 21.2045C198.641 23.3735 199.24 25.1225 199.972 26.9988C201.482 30.867 202.261 35.7983 203.378 40.695C204.486 45.5596 202.933 48.5243 203.092 52.9189C203.158 54.7227 202.865 57.5566 203.283 59.2777C203.756 61.2257 205.116 62.4955 204.896 64.4486C204.716 66.0473 203.206 67.9785 202.979 69.4499C202.879 70.0961 203.606 71.8957 203.573 72.725C203.528 73.8741 202.446 74.7127 202.324 75.7782C201.77 80.6344 200.871 84.9532 199.076 90.0667C197.232 95.3168 196.392 100.959 194.436 105.687C196.578 105.816 195.622 104.557 197.627 105.525C201.62 107.455 195.403 106.893 201.881 107.086C203.816 107.144 205.412 105.726 207.185 105.632C208.387 105.569 208.782 107.604 210.278 107.119C214.599 105.718 218.339 92.5386 218.624 87.9423C218.812 84.9009 218.082 81.3136 218.631 78.3903C219.223 75.2315 220.978 71.9741 221.363 68.0519C221.922 62.3394 222.376 55.5023 221.82 49.2785C221.54 46.1594 221.626 43.6546 221.596 40.5136C221.572 38.0931 221.765 35.5697 221.501 33.5752C221.185 31.1902 219.834 28.0871 219.598 25.616C219.497 24.5538 220.09 21.5259 219.751 20.4536C219.383 19.2893 216.885 19.782 216.628 18.5941C216.362 17.3632 217.812 15.7358 217.63 14.4441C217.456 13.2005 216.829 12.5501 216.594 11.4077C215.77 7.41547 215.409 3.6046 211.11 3.25869C208.619 3.05874 207.38 4.97557 205.348 5.53745C203.202 6.13056 201.745 6.18961 199.316 6.51274C197.275 6.78778 195.1 8.20683 193.188 8.60505Z" fill="#FE9456"/>
    <path d="M303.517 116.035C292.323 109.244 277.757 106.016 264.87 107.65C261.079 108.131 258.952 105.903 256.121 105.544C252.885 105.134 248.122 107.239 244.683 107.167C239.53 107.058 237.64 103.435 232.418 103.638C227.678 103.822 225.71 104.2 221.184 102.209C220.056 101.713 219.231 100.151 217.926 99.804C215.279 99.1021 215.116 100.629 213.124 100.434C211.455 100.271 208.516 98.9241 207.073 97.9985C204.706 96.4808 207.671 96.6951 203.701 95.0313C201.698 94.1911 199.334 95.6169 198.216 95.087C197.056 94.5378 196.854 92.4261 195.53 91.7959C193.47 90.8147 191.917 90.7784 189.638 89.6715C182.678 86.2892 174.665 82.4142 168.523 78.7628C166.033 77.283 163.698 75.5088 160.829 74.5571C159.411 74.0863 157.075 74.6136 155.703 74.0197C154.155 73.3498 153.207 71.1554 151.612 70.4256C148.207 68.8674 143.006 69.5415 140.335 69.08C138.57 68.7754 136.713 67.3732 134.168 67.5707C131.864 67.7495 131.855 68.7796 129.028 68.7012C126.269 68.6244 124.158 67.0122 121.5 66.7059C115.975 66.0689 111.621 69.6107 106.588 69.8933C105.305 69.965 103.795 68.8843 102.618 68.9745C101.126 69.0901 98.5854 70.1287 97.7189 70.1962C97.3815 70.6189 97.0433 71.0415 96.706 71.4642C95.7141 70.9217 94.724 70.3767 93.7355 69.8292C92.4492 70.2932 92.0008 72.2395 90.5463 72.6715C88.8747 73.1667 87.9266 71.9367 86.4931 72.2792C85.6333 72.4851 85.4483 74.4955 84.6398 74.736C83.3081 75.1317 82.1463 74.7166 80.7784 75.1679C79.8379 76.0673 78.8116 76.857 77.6986 77.5378C76.6571 77.2535 75.6131 76.9785 74.5674 76.711C72.3171 77.7605 69.2305 80.5337 67.1686 81.719C65.1445 82.8833 62.8672 84.4956 60.7876 85.8311C57.6993 87.8146 55.9285 90.0655 53.0531 92.286C52.0629 93.0504 51.5809 92.9011 50.7497 93.4959C48.1704 95.3427 46.5064 96.4361 44.2207 99.4589C42.3262 101.965 40.17 105.284 37.8726 107.34C37.2147 107.929 33.8026 109.596 33.339 110.19C32.5558 111.193 32.8149 113.787 31.7305 115.33C31.0087 116.358 29.4305 116.781 28.6608 117.809C27.5411 119.303 28.4967 120.344 27.6782 121.711C27.0481 122.763 25.5296 123.135 24.7834 124.357C24.1087 125.463 24.6875 127.293 24.0128 128.311C23.4231 129.2 21.2796 129.6 20.4737 130.659C19.5643 131.854 19.4734 134.158 18.8702 135.55C17.3888 138.97 14.976 141.94 13.7554 145.74C12.3109 150.238 9.92259 152.91 9.12424 157.542C8.86429 159.053 9.62731 160.03 9.26473 161.584C8.75492 163.768 7.36601 165.346 6.50624 167.342C6.22442 167.995 7.24571 169.425 6.92351 170.069C5.64984 172.623 4.29121 170.745 3.55342 174.45C2.80807 178.193 4.56714 176.659 4.41992 178.958C4.30467 180.757 3.02175 180.329 2.57756 182.043C0.818492 188.826 2.63813 196.07 1.29717 202.272C0.504703 205.939 0.174929 208.149 0.144644 211.721C0.12193 214.416 -0.0379092 217.138 0.00836006 219.983C0.352435 220.382 0.697351 220.781 1.04143 221.179C2.39753 221.95 2.43623 222.799 1.15752 223.725C1.049 223.104 1.93821 227.942 1.99205 227.438C1.69004 230.28 0.488719 229.172 0.900094 232.704C1.07592 234.213 2.27471 238.907 2.77021 240.135C5.31586 246.453 6.02252 254.766 8.90719 260.83C8.77175 261.329 8.63547 261.829 8.50002 262.329C9.49523 262.856 10.493 263.379 11.4932 263.897C12.0771 265.483 11.1525 267.321 11.8726 269.21C13.2683 272.868 14.971 275.105 16.6098 278.201C17.3686 279.634 17.5999 280.311 18.3957 281.549C18.8391 281.79 19.2824 282.031 19.7249 282.273C21.3772 283.153 21.8264 284.352 21.0726 285.869C22.3152 287.852 24.4646 292.388 26.0504 294.695C27.0817 296.196 29.5214 297.616 30.6394 299.193C31.3696 300.223 30.6739 302.152 31.4613 303.293C31.7347 304.591 32.3632 305.711 33.3466 306.652C34.5126 306.808 35.6794 306.959 36.8471 307.108C36.6166 306.85 38.8652 312.356 38.7365 312.099C38.0375 310.7 42.2303 317.063 41.4723 316.462C45.2487 319.46 47.8928 318.664 50.8389 323.277C52.4617 325.818 53.1843 326.261 54.9055 328.151C57.1475 330.612 59.3112 332.94 62.598 334.709C68.3749 337.817 71.3 341.973 75.3792 345.076C77.2485 346.498 79.5485 347.796 81.7543 349.192C81.8822 349.273 83.6505 350.204 84.0021 350.384C84.6718 351.55 85.6712 352.345 87.0021 352.767C88.0814 352.579 89.1599 352.387 90.2375 352.189C94.0283 354.309 94.1418 356.376 98.7149 357.667C99.1919 357.802 102.996 358.673 103.623 359.05C106.02 360.495 105.5 361.796 107.308 363.196C108.75 364.313 112.547 364.962 114.503 365.693C117.487 366.809 120.397 366.672 123.243 367.472C124.353 367.784 125.264 369.674 126.384 370.144C127.344 369.866 128.302 369.583 129.259 369.295C130.463 369.789 131.608 370.393 132.693 371.106C136.219 371.864 139.849 372.762 143.747 373.835C147.921 374.984 154.527 376.777 158.735 376.544C161.657 376.382 164.477 374.917 167.305 375.415C170.495 375.976 166.307 376.947 171.495 376.82C173.531 376.77 176.208 375.899 177.845 375.759C181.039 375.484 185.497 375.081 189.222 375.12C193.735 375.169 197.474 375.983 201.955 374.443C204.976 373.405 208.433 370.938 211.481 370.409C212.866 370.168 215.089 370.936 216.777 370.718C218.837 370.452 222.447 370.062 224.389 369.507C224.763 369.4 228.824 367.169 228.968 367.095C231.026 366.035 232.746 365.548 234.876 364.726C238.834 363.199 242.38 360.933 246.427 359.446C249.255 358.406 252.045 357.817 254.266 356.661C257.13 355.172 260.809 353.283 263.51 351.017C263.98 350.622 266.13 349.79 266.56 349.518C266.443 348.616 266.584 347.763 266.98 346.959C267.931 346.89 268.882 346.817 269.832 346.739C270.304 346.399 272.919 345.489 273.411 345.246C275.653 344.139 278.199 341.166 280.404 339.694C284.752 336.791 288.319 333.462 292.241 330.081C292.154 330.273 292.023 329.565 291.948 329.761C290.156 329.616 278.615 327.563 274.815 321.707C271.598 316.748 275.918 308.898 276.287 307.335C275.773 307.445 254.375 300.234 254.375 288.577C254.375 250.721 277.297 250.119 279.124 249.46C284.88 249.406 284.462 250.81 283.862 246.854C283.71 246.575 251.684 235.741 263.292 209.242C278.523 174.471 310.444 191.422 311.653 191.616C310.574 189.125 303.288 172.433 305.334 160.352C309.671 134.739 329.716 143.896 330.858 143.96C329.385 141.612 327.133 139.31 325.88 137.019C326.048 137.326 324.283 132.582 324.817 133.1C324.622 132.911 320.356 131.031 319.973 130.741C316.48 128.105 315.193 123.897 312.269 120.878C310.276 118.822 305.794 117.417 303.517 116.035Z" fill="#FFD9A0"/>
    <path d="M276.122 210.812C275.806 211.552 276.759 215.044 276.577 216.355C276.574 216.38 274.685 221.321 274.737 221.134C273.65 225.047 274.65 227.685 276.062 231.139C277.897 235.632 275.938 238.772 279.106 242.334C279.926 243.256 281.335 243.308 282.186 244.062C283.774 245.468 284.128 248.063 285.147 248.948C284.648 248.111 282.666 248.234 280.621 248.153C282.036 248.209 275.894 247.422 276.183 247.535C275.144 247.126 274.767 245.384 273.795 245.007C269.118 243.197 261.571 240.489 259.141 235.351C258.61 234.226 259.769 232.966 259.034 231.764C258.512 230.91 256.79 230.352 256.417 229.574C255.327 227.299 254.358 224.147 254.375 221.057C254.388 218.551 254.985 214.558 255.274 212.373C255.458 210.988 255.51 207.898 256.13 206.268C258.167 200.914 260.473 196.462 264.897 192.457C268.038 189.614 274.954 186.426 279.295 184.935C281.67 184.12 284.566 185.195 287.114 185.113C290.412 185.008 293.677 183.405 296.871 184.858C300.1 186.327 300.191 187.037 304.054 187.959C308.026 188.907 309.85 190.079 313.329 192.373C311.07 192.01 307.477 191.864 305.756 191.752C303.555 191.61 302.294 190.366 299.376 191.731C295.802 193.403 292.895 195.524 289.242 197.121C284.557 199.168 284.919 200.342 282.315 204.221C280.278 207.254 277.55 207.468 276.122 210.812Z" fill="#FE9456"/>
    <path d="M276.038 307.3C264.621 307.848 251.618 301.869 244.832 292.179C243.392 290.124 239.7 281.542 239.718 278.873C239.726 277.789 240.639 276.71 240.698 275.586C240.777 274.053 239.681 273.007 239.724 271.667C239.75 270.862 241.578 270.178 241.746 269.407C242.04 268.053 240.726 267.459 241.39 266.085C241.944 264.938 243.374 265.181 243.918 263.67C244.344 262.488 243.442 260.867 243.835 259.99C244.811 257.811 246.107 257.73 248.106 256.225C248.949 255.591 248.954 254.208 249.906 253.565C250.684 253.039 252.193 253.234 253.115 252.723C255.494 251.404 257.358 250.663 259.771 249.665C261.261 249.05 263.254 247.57 264.974 246.973C266.231 246.537 266.607 248.086 267.6 247.88C267.899 247.819 269.678 246.746 270.069 246.729C272.671 246.626 275.492 246.454 278.238 247.28C279.474 247.652 280.494 248.514 281.803 248.714C282.946 248.888 285.235 247.488 285.946 247.696C288.553 248.459 284.793 250.648 284.281 250.905C281.588 252.258 280.545 249.73 278.666 250.357C274.783 251.653 274.587 255.722 271.797 258.111C270.027 259.628 269.088 257.988 266.83 260.286C267.021 260.093 264.367 265.855 264.681 264.989C263.544 268.123 261.758 270.213 261.011 273.003C260.079 276.482 260.243 279.89 261.102 283.061C261.778 285.553 261.954 291.286 263.035 293.034C263.841 294.335 265.717 294.292 266.602 295.317C267.296 296.119 267.409 297.805 268.099 298.777C270.595 302.294 272.434 305.003 276.038 307.3Z" fill="#FE9456"/>
    <path d="M292.341 329.593C292.35 329.765 292.439 329.857 292.494 330.003C292.093 330.191 292.066 330.313 291.78 330.477C291.049 330.98 290.679 330.005 289.85 330.262C289.102 330.494 288.782 332.175 288.001 332.41C285.999 333.014 283.516 332.633 281.515 332.828C277.405 333.229 272.807 333.797 269.534 330.609C268.05 329.164 266.186 325.454 265.657 323.491C264.809 320.346 266.291 319.693 266.969 317.788C266.994 317.717 268.373 316.463 268.506 316.185C268.921 315.32 268.371 313.857 268.886 312.71C270.83 308.387 273.216 309.544 276.126 307.752C273.617 318.308 281.785 328.735 292.341 329.593Z" fill="#FE9456"/>
    <path d="M331.807 144.276C326.02 143.95 321.438 143.718 317.092 146.505C315.948 147.239 316.504 148.892 315.786 149.809C315.137 150.637 313.661 150.377 312.951 151.344C311.513 153.303 310.402 156.671 309.686 158.756C307.744 164.405 306.495 171.047 307.407 176.137C307.789 178.268 309.812 181.51 310.193 183.949C310.695 187.163 310.691 188.646 312.156 192.028C310.702 191.148 308.967 190.382 307.609 189.508C307.348 188.808 307.105 188.102 306.881 187.389C306.8 186.376 306.157 186.132 304.948 186.658C303.725 185.466 303.171 184.681 301.732 182.789C299.788 180.232 298.67 178.226 297.196 175.325C296.536 174.027 295.36 173.798 294.811 172.307C293.974 170.033 293.403 167.043 292.859 164.956C292.024 161.758 291.179 159.043 291.8 155.488C292.304 152.604 294.339 146.216 296.994 144.186C297.847 144.087 298.653 144.256 299.409 144.695C300.492 145.105 301.06 144.664 301.114 143.371C302.626 142.77 304.016 140.168 306.472 139.906C308.981 139.637 309.737 141.143 311.673 141.158C314.359 141.179 316.333 140.051 319.088 140.246C323.157 140.532 327.893 142.508 331.807 144.276Z" fill="#FE9456"/>
</svg>
