<svg width="349" height="278" viewBox="0 0 349 278" fill="none" xmlns="http://www.w3.org/2000/svg">
    <path d="M255.486 197.463C255.92 196.783 256.796 196.309 257.219 195.621C257.642 194.934 258.199 194.315 258.611 193.62C259.023 192.925 259.256 192.156 259.656 191.457C260.055 190.757 260.353 190.021 260.739 189.317C261.125 188.612 261.784 188.024 262.157 187.315C262.531 186.605 262.683 185.811 263.043 185.095C263.403 184.38 263.326 183.51 263.673 182.79C264.019 182.07 265.557 181.775 265.889 181.051C266.221 180.326 266.233 179.484 266.55 178.755C266.866 178.026 267.33 177.333 267.632 176.6C267.934 175.866 267.439 174.894 267.725 174.155C268.011 173.416 268.37 172.7 268.639 171.957C268.927 171.22 268.886 170.402 269.153 169.662C269.421 168.922 269.708 168.2 269.955 167.455C270.201 166.71 270.587 166.007 270.809 165.257C271.031 164.508 271.074 163.732 271.269 162.98C271.464 162.227 272.601 161.618 272.768 160.859C272.936 160.1 272.962 159.312 273.099 158.545C273.231 157.802 273.601 157.075 273.721 156.327C273.842 155.579 273.997 154.831 274.102 154.082C274.208 153.333 273.587 152.537 273.68 151.788C273.772 151.04 274.382 150.315 274.455 149.565C274.527 148.815 274.284 148.054 274.337 147.304C274.391 146.553 273.782 145.809 273.815 145.059C273.847 144.309 274.187 143.567 274.197 142.815C274.208 142.064 274.899 141.281 274.883 140.533C274.868 139.785 275.085 139.003 275.042 138.257C274.999 137.512 274.944 136.744 274.873 136.002C274.802 135.26 274.537 134.523 274.433 133.785C274.33 133.047 274.205 132.294 274.069 131.562C273.933 130.829 273.843 130.067 273.672 129.342C273.501 128.617 272.282 128.166 272.075 127.45C271.867 126.734 272.414 125.795 272.168 125.089C271.923 124.383 271.683 123.672 271.394 123.001C271.101 122.317 269.991 122 269.655 121.348C269.319 120.697 269.637 119.708 269.254 119.078C268.872 118.448 268.589 117.728 268.163 117.119C267.738 116.511 266.672 116.314 266.204 115.734C265.735 115.153 265.044 114.76 264.543 114.207C264.041 113.654 263.546 113.124 263.006 112.596C262.466 112.068 262.574 110.968 262.005 110.466C261.435 109.964 260.572 109.757 259.973 109.28C259.374 108.803 258.85 108.264 258.232 107.812C257.613 107.359 257.378 106.453 256.74 106.023C256.103 105.593 255.034 105.697 254.38 105.287C253.726 104.877 253.327 104.132 252.658 103.741C251.99 103.349 251.215 103.107 250.536 102.733C249.856 102.359 248.943 102.34 248.253 101.981C247.564 101.621 247.296 100.608 246.599 100.262C245.901 99.915 244.958 100.007 244.269 99.6821C243.58 99.3571 242.832 99.1127 242.132 98.8052C241.433 98.4977 240.657 98.3206 239.946 98.0349C239.236 97.7491 238.68 97.1215 237.957 96.8634C237.234 96.6053 236.489 96.3444 235.75 96.1135C235.011 95.8826 234.317 95.4804 233.563 95.2875C232.808 95.0947 231.764 95.8183 230.995 95.6654C230.225 95.5124 229.503 95.3309 228.721 95.2214C227.938 95.1119 227.344 94.0228 226.551 93.9597C225.771 93.8976 224.945 93.8114 224.144 93.7962C223.342 93.7811 222.488 94.7238 221.691 94.7215C220.894 94.7192 220.126 94.1934 219.329 94.2018C218.532 94.2101 217.737 94.1081 216.94 94.1248C216.142 94.1415 215.347 93.8781 214.55 93.9018C213.753 93.9255 212.941 95.1357 212.144 95.1655C211.347 95.1953 210.555 94.2378 209.759 94.271C208.964 94.3042 208.164 94.4089 207.366 94.443C206.569 94.4771 205.771 94.6344 204.976 94.6685C204.181 94.7026 203.439 94.3187 202.644 94.3507C201.877 94.2649 200.964 95.1868 200.201 95.0795C199.439 94.9721 198.757 94.4857 198.002 94.353C197.246 94.2203 196.617 93.6405 195.865 93.4893C195.114 93.338 194.434 93.0126 193.689 92.8389C192.945 92.6652 191.814 93.6086 191.074 93.4118C190.334 93.2151 189.767 92.5541 189.04 92.3321C188.313 92.1102 187.445 92.1994 186.725 91.9598C186.005 91.7202 185.438 91.1334 184.727 90.8723C184.017 90.6112 183.19 90.5699 182.491 90.2868C181.744 89.9825 180.894 89.8286 180.162 89.4995C179.429 89.1705 178.784 88.6584 178.068 88.3037C177.351 87.9491 176.936 87.1212 176.234 86.7425C175.532 86.3638 174.931 85.8569 174.245 85.4555C173.558 85.0541 172.813 84.7442 172.144 84.3219C171.474 83.8997 171.05 83.1882 170.41 82.7313C169.769 82.2743 168.823 82.1371 168.17 81.6967C167.506 81.2495 167.116 80.3679 166.404 80.0015C165.691 79.635 164.488 80.0285 163.689 79.8031C163.086 79.2964 162.926 78.2627 162.295 77.7842C161.665 77.3057 161.092 76.7187 160.438 76.2708C159.785 75.8229 158.724 75.8479 158.045 75.4295C157.366 75.0112 156.529 74.8137 155.824 74.4283C155.12 74.0428 154.471 73.5886 153.747 73.2338C153.023 72.8789 152.482 72.204 151.738 71.8827C150.993 71.5614 149.942 71.8325 149.18 71.545C148.419 71.2574 147.76 70.7795 146.98 70.5271C146.201 70.2747 145.636 69.4783 144.842 69.2628C144.048 69.0473 143.128 69.1618 142.322 68.9814C141.515 68.801 140.674 68.7438 139.856 68.5999C139.052 68.4586 138.13 68.9052 137.322 68.8037C136.513 68.7022 135.81 68.0441 134.995 67.9811C134.18 67.9181 133.307 68.4013 132.487 68.3758C131.667 68.3503 130.904 67.3932 130.08 67.4049C129.256 67.4165 128.419 68.1681 127.596 68.215C126.772 68.2619 125.968 68.437 125.146 68.5194C124.323 68.6018 123.422 67.8504 122.603 67.9651C121.783 68.0798 120.941 68.2135 120.128 68.3569C119.315 68.5003 118.511 68.8344 117.7 69.0119C116.888 69.1894 116.156 69.7201 115.354 69.9265C114.552 70.1329 113.702 70.1824 112.907 70.4168C112.112 70.6511 111.433 71.2376 110.646 71.4977C109.86 71.7579 109.006 71.8277 108.229 72.1136C107.452 72.3994 106.465 72.2136 105.701 72.5242C104.938 72.8349 104.567 74.021 103.811 74.3537C103.055 74.6865 102.042 74.5067 101.298 74.8622C100.554 75.2177 100.114 76.1205 99.3825 76.4952C98.6509 76.8699 97.9565 77.288 97.2372 77.6848C96.5178 78.0816 95.6677 78.2473 94.9759 78.677C94.2842 79.1066 93.2234 79.0696 92.5564 79.529C91.8893 79.9884 91.597 80.9185 90.9535 81.4103C90.3101 81.9021 89.4177 82.1368 88.8008 82.6558C88.184 83.1749 87.586 83.7318 86.9948 84.2763C86.4036 84.8208 85.7113 85.2977 85.1464 85.8662C84.5814 86.4347 83.7737 86.839 83.2349 87.4277C82.6961 88.0165 82.6608 88.986 82.147 89.5939C81.6332 90.2017 80.7182 90.5533 80.228 91.1776C79.7379 91.8018 79.9004 92.8271 79.4337 93.4662C78.967 94.1052 78.6108 94.791 78.1662 95.4422C77.7216 96.0933 77.2127 96.7012 76.7883 97.3631C76.3404 98.0224 75.9385 98.6996 75.513 99.3741C75.0875 100.049 74.1065 100.451 73.7059 101.137C73.3052 101.823 73.3933 102.724 73.0158 103.418C72.6382 104.112 72.6748 104.96 72.3191 105.664C71.9635 106.369 70.7236 106.738 70.3898 107.451C70.0559 108.165 69.8663 108.927 69.5525 109.643C69.0908 110.618 68.6604 111.602 68.2196 112.578C67.8995 113.287 68.048 114.151 67.7418 114.865C67.4355 115.579 66.9606 116.24 66.6657 116.958C66.3708 117.677 65.841 118.325 65.5617 119.048C65.2824 119.77 65.0452 120.506 64.7827 121.233C64.5202 121.96 64.1752 122.669 63.9261 123.4C63.677 124.13 63.7318 124.932 63.4971 125.666C63.2624 126.399 63.1914 127.166 62.9709 127.903C62.7503 128.64 62.5214 129.372 62.3165 130.111C62.1117 130.85 62.1613 131.63 61.9688 132.375C61.7762 133.12 61.1287 133.779 60.951 134.524C60.7732 135.269 61.2073 136.099 61.0425 136.846C60.8777 137.593 60.3797 138.289 60.2316 139.037C60.0835 139.786 59.299 140.463 59.1649 141.214C59.0308 141.964 59.4167 142.767 59.2979 143.518C59.179 144.27 59.2949 145.037 59.191 145.79C59.0871 146.543 59.2501 147.305 59.1619 148.06C59.0737 148.814 58.4006 149.534 58.3284 150.29C58.2562 151.045 58.3078 151.801 58.2463 152.559C58.1848 153.316 58.4564 154.068 58.4094 154.826C58.3625 155.584 58.3197 156.328 58.287 157.087C58.2543 157.846 57.979 158.599 57.9635 159.354C57.948 160.11 58.2522 160.85 58.2476 161.605C58.2429 162.36 58.0364 163.119 58.0544 163.874C58.0725 164.63 57.9939 165.385 58.0209 166.139C58.0479 166.893 58.188 167.633 58.2304 168.385C58.2728 169.138 57.5444 169.968 57.6015 170.717C57.6586 171.465 58.1533 172.171 58.2278 172.921C58.3024 173.671 58.3149 174.428 58.4012 175.176C58.4874 175.923 58.9014 176.62 59.0023 177.366C59.1032 178.111 58.6965 178.94 58.8116 179.683C58.9266 180.426 58.8068 181.218 58.9364 181.958C59.0659 182.698 60.1278 183.254 60.2737 183.992C60.4196 184.73 60.1073 185.561 60.2652 186.295C60.4231 187.03 60.4719 187.791 60.6443 188.522C60.8166 189.254 61.0406 189.974 61.2267 190.702C61.4128 191.43 62.0664 192.029 62.2651 192.756C62.4638 193.484 62.1169 194.357 62.3307 195.077C62.5446 195.798 62.7292 196.529 62.9571 197.246C63.1849 197.962 63.9529 198.506 64.1947 199.219C64.4365 199.931 64.4192 200.725 64.6747 201.43C64.86 202.058 65.2991 202.588 65.9054 202.916C66.1119 203.594 66.106 204.344 66.3232 205.02C66.5403 205.697 67.0053 206.295 67.2348 206.968C67.4642 207.641 67.5008 208.379 67.7458 209.046C67.9908 209.712 68.4286 210.313 68.6919 210.973C68.9552 211.633 69.276 212.271 69.5615 212.921C69.847 213.571 69.6759 214.423 69.9838 215.064C70.2916 215.706 71.1894 216.084 71.5227 216.713C71.856 217.342 71.4998 218.33 71.8636 218.945C72.2275 219.56 72.5612 220.223 72.9564 220.821C73.3516 221.42 74.756 221.403 75.1873 221.984C75.6187 222.564 75.9214 223.194 76.3849 223.752C76.8869 224.357 76.8285 225.38 77.367 225.934C77.9162 226.499 78.6076 226.958 79.1923 227.473C79.7862 227.995 80.1373 228.801 80.7654 229.274C81.3934 229.747 82.4638 229.759 83.1311 230.19C83.7984 230.622 84.8047 230.58 85.5054 230.968C86.2061 231.356 86.5745 232.238 87.3041 232.584C88.0337 232.929 88.6037 233.592 89.3585 233.894C90.1134 234.196 90.9402 234.395 91.7137 234.664C92.4871 234.933 93.471 234.703 94.2594 234.938C95.0479 235.172 95.7294 235.667 96.5292 235.87C97.329 236.073 98.1801 236.105 98.9877 236.278C99.7952 236.452 100.663 236.385 101.479 236.534C102.295 236.683 102.958 237.424 103.779 237.551C104.57 237.675 105.571 236.864 106.36 236.976C107.15 237.089 107.872 237.52 108.664 237.627C109.455 237.734 110.261 237.797 111.052 237.902C111.844 238.007 112.629 238.178 113.42 238.285C114.212 238.392 115.035 238.381 115.824 238.494C116.613 238.607 117.197 239.624 117.984 239.749C118.77 239.874 119.641 239.648 120.424 239.789C121.206 239.929 122.198 239.36 122.976 239.521C123.754 239.682 124.475 240.068 125.248 240.255C126.022 240.441 126.629 241.091 127.388 241.305C128.147 241.519 128.746 242.084 129.494 242.33C130.243 242.576 131.088 242.562 131.82 242.846C132.553 243.129 133.558 242.897 134.272 243.219C134.986 243.541 135.212 244.622 135.903 244.983C136.583 245.337 137.846 244.876 138.512 245.277C139.165 245.67 139.825 246.078 140.486 246.485C141.135 246.886 141.248 248 141.908 248.407C142.567 248.814 143.612 248.688 144.274 249.087C144.937 249.486 145.074 250.601 145.745 250.985C146.416 251.37 147.344 251.402 148.027 251.766C148.709 252.129 149.216 252.809 149.915 253.145C150.614 253.481 151.918 252.774 152.637 253.072C153.355 253.371 153.872 254.044 154.614 254.297C155.356 254.549 156.028 254.995 156.791 255.191C157.554 255.386 158.42 255.24 159.209 255.365C160.007 255.382 160.807 255.359 161.606 255.295C162.404 255.338 163.142 255.799 163.958 255.753C164.755 255.708 165.481 255.201 166.293 255.061C167.101 254.974 167.904 254.843 168.698 254.666C169.505 254.639 170.345 254.393 171.153 254.334C171.961 254.276 172.744 254.285 173.552 254.193C174.359 254.101 175.16 254.182 175.963 254.066C176.767 253.949 177.642 254.375 178.439 254.232C179.237 254.088 179.96 253.526 180.757 253.361C181.553 253.196 182.369 253.161 183.16 252.973C183.951 252.786 184.691 252.419 185.476 252.211C186.262 252.004 187.214 252.378 187.992 252.152C188.77 251.926 189.501 251.51 190.276 251.267C191.051 251.025 191.67 250.323 192.439 250.065C193.207 249.808 193.944 249.473 194.707 249.203C195.471 248.932 196.23 248.657 196.988 248.374C197.747 248.091 198.488 247.77 199.244 247.477C200.001 247.183 200.696 246.759 201.443 246.454C202.191 246.149 203.203 246.416 203.946 246.103C204.688 245.789 205.292 245.152 206.027 244.831C206.762 244.509 207.448 244.118 208.175 243.781C208.903 243.445 209.888 243.609 210.605 243.26C211.323 242.912 211.776 242.083 212.486 241.72C213.195 241.357 214.035 241.218 214.735 240.839C215.435 240.46 215.955 239.797 216.646 239.403C217.337 239.009 218.012 238.606 218.694 238.193C219.375 237.78 220.249 237.654 220.918 237.228C221.587 236.802 221.981 236.019 222.638 235.576C223.295 235.133 224.192 235.001 224.837 234.543C225.481 234.084 225.828 233.29 226.458 232.814C227.088 232.339 228.164 232.36 228.779 231.869C229.393 231.377 229.621 230.489 230.22 229.98C230.818 229.472 231.466 229.024 232.048 228.499C232.629 227.975 233.873 228.035 234.436 227.493C234.999 226.95 234.645 225.64 235.188 225.082C235.732 224.524 236.239 223.963 236.763 223.388C237.286 222.814 238.393 222.676 238.895 222.086C239.419 221.514 239.664 220.741 240.173 220.16C240.683 219.579 241.176 218.99 241.673 218.4C242.17 217.81 242.329 217.002 242.812 216.402C243.296 215.802 244.162 215.457 244.634 214.85C245.105 214.243 246.041 213.918 246.5 213.303C246.959 212.687 246.689 211.644 247.139 211.023C247.589 210.402 248.087 209.818 248.522 209.189C248.958 208.56 249.477 207.983 249.901 207.349C250.326 206.714 250.891 206.157 251.305 205.516C251.718 204.875 252.38 204.359 252.783 203.713C253.187 203.067 252.879 202.081 253.268 201.43C253.658 200.779 253.991 200.109 254.374 199.454C254.758 198.799 255.112 198.122 255.486 197.463Z" fill="#FFF0CB"/>
    <path d="M274.324 144.402C274.332 143.628 274.372 142.856 274.361 142.08C274.35 141.305 275.108 140.474 275.075 139.701C275.041 138.929 274.263 138.22 274.203 137.451C274.143 136.681 273.781 135.955 273.69 135.192C273.599 134.428 273.975 133.59 273.851 132.831C273.726 132.072 273.298 131.371 273.135 130.621C272.971 129.872 273.705 128.88 273.498 128.14C273.292 127.399 272.296 126.876 272.044 126.149C271.792 125.422 271.166 124.846 270.863 124.136C270.559 123.427 270.289 122.707 269.935 122.021C269.682 121.326 270.158 120.342 269.871 119.689C269.57 119 268.619 118.623 268.279 118.001C267.848 117.419 267.371 116.867 266.852 116.35C266.384 115.719 266.922 114.434 266.389 113.981C265.961 113.372 265.032 113.144 264.568 112.549C263.97 111.655 263.006 111.023 261.877 110.788C261.714 110.674 261.107 111.085 260.934 110.986C260.527 110.419 260.086 109.873 259.614 109.351C259.08 108.891 259.07 107.845 258.48 107.433C257.89 107.021 256.77 107.292 256.138 106.928C255.518 106.575 255.353 105.675 254.685 105.365C254.373 104.911 253.88 104.59 253.304 104.466C252.776 104.376 252.26 104.228 251.735 104.14C250.871 103.993 250.739 105.146 250.52 105.757C250.307 106.354 249.527 107.143 250.029 107.59C250.061 107.911 250.519 108.023 250.733 108.337C250.986 108.713 251.045 109.068 251.425 109.186C251.402 109.972 251.222 110.706 251.271 111.481C251.321 112.256 251.21 113.1 251.335 113.869C251.459 114.639 251.57 115.364 251.768 116.122C251.708 116.753 252.369 117.303 252.276 117.931C252.176 118.612 252.25 119.319 252.113 119.995C251.976 120.672 251.572 121.317 251.4 121.988C251.227 122.659 250.619 123.242 250.422 123.909C250.226 124.576 250.26 125.285 250.04 125.947C249.82 126.609 249.31 127.19 249.073 127.847C248.824 128.531 248.92 129.31 248.651 129.99C248.381 130.671 248.689 131.536 248.398 132.211C248.108 132.887 247.158 133.343 246.847 134.01C246.535 134.677 246.438 135.423 246.109 136.084C245.779 136.745 245.836 137.566 245.488 138.22C245.141 138.874 244.816 139.55 244.451 140.197C244.086 140.844 242.715 141.032 242.334 141.671C241.952 142.31 242.404 143.349 242.005 143.98C241.607 144.61 240.536 144.899 240.123 145.519C239.711 146.138 239.562 146.903 239.132 147.517C238.757 148.054 238.463 148.638 238.075 149.17C237.687 149.702 237.167 150.144 236.771 150.672C236.05 151.499 235.719 152.61 234.978 153.418C234.44 154.006 233.988 154.671 233.438 155.249C232.888 155.828 232.141 156.257 231.58 156.827C231.019 157.396 230.263 157.806 229.692 158.368C229.121 158.929 228.734 159.652 228.153 160.206C227.573 160.76 226.711 161.063 226.122 161.608C225.533 162.153 224.912 162.667 224.314 163.206C223.717 163.744 223.303 164.453 222.699 164.985C222.094 165.517 221.467 166.027 220.857 166.551C220.247 167.075 219.854 167.821 219.238 168.341C218.621 168.861 217.737 169.111 217.116 169.626C216.495 170.141 216.208 171.003 215.582 171.514C214.957 172.024 213.952 172.139 213.324 172.649C212.696 173.159 211.935 173.517 211.301 174.022C210.667 174.527 209.798 174.767 209.16 175.268C208.523 175.769 208.229 176.635 207.592 177.133C206.954 177.631 206.38 178.197 205.74 178.696C205.101 179.195 204.584 179.822 203.944 180.317C203.305 180.812 202.845 181.502 202.205 181.998C201.564 182.494 200.961 183.044 200.313 183.538C199.664 184.033 198.836 184.326 198.189 184.819C197.542 185.312 196.507 185.37 195.857 185.86C195.207 186.35 194.585 186.871 193.931 187.358C193.278 187.844 192.436 188.108 191.779 188.59C191.122 189.072 191.016 190.205 190.352 190.681C189.689 191.157 188.895 191.479 188.229 191.95C187.562 192.421 186.526 192.432 185.853 192.897C185.18 193.362 184.593 193.922 183.915 194.379C183.236 194.835 182.729 195.51 182.045 195.958C181.362 196.406 180.962 197.246 180.27 197.684C179.578 198.123 178.458 197.962 177.759 198.39C177.059 198.818 176.264 199.091 175.557 199.508C174.849 199.924 174.409 200.736 173.692 201.142C172.976 201.548 172.498 202.337 171.774 202.729C171.051 203.121 170.322 203.522 169.59 203.899C168.857 204.277 167.845 204.159 167.103 204.522C166.362 204.886 165.455 204.909 164.705 205.256C163.969 205.597 163.336 206.13 162.596 206.456C161.856 206.782 161.277 207.459 160.53 207.774C159.783 208.09 159.145 208.666 158.392 208.969C157.639 209.272 156.591 208.881 155.832 209.171C155.073 209.461 154.278 209.639 153.514 209.916C152.75 210.193 152.055 210.632 151.286 210.896C150.518 211.16 149.967 212.054 149.195 212.305C148.422 212.556 147.338 211.862 146.562 212.1C145.786 212.339 145.226 213.282 144.443 213.506C143.661 213.73 142.832 213.789 142.046 214C141.26 214.211 140.384 214.06 139.595 214.258C138.806 214.455 138.038 214.715 137.246 214.898C136.453 215.082 135.745 215.647 134.95 215.817C134.155 215.988 133.349 216.113 132.551 216.271C131.753 216.428 130.85 215.944 130.049 216.086C129.249 216.229 128.497 216.631 127.695 216.761C126.892 216.891 126.057 216.695 125.253 216.811C124.474 216.921 123.82 218.221 123.028 218.319C122.236 218.418 121.36 217.315 120.568 217.399C119.775 217.482 119.069 218.761 118.277 218.828C117.486 218.894 116.67 218.118 115.878 218.166C115.087 218.214 114.309 218.204 113.518 218.232C112.727 218.261 111.933 218.676 111.144 218.684C110.355 218.692 109.602 218.178 108.815 218.164C108.027 218.15 107.279 217.908 106.49 217.868C105.702 217.828 104.932 217.863 104.154 217.799C103.377 217.736 102.57 217.885 101.793 217.792C101.016 217.698 100.102 218.221 99.334 218.098C98.566 217.975 97.7645 217.882 97.0044 217.725C96.2443 217.569 95.674 216.793 94.927 216.603C94.18 216.412 93.5765 215.887 92.843 215.658C92.1096 215.428 91.0228 215.988 90.3066 215.72C89.5904 215.452 89.0713 214.789 88.3754 214.48C87.6795 214.17 86.8588 214.062 86.1881 213.711C85.5175 213.36 84.7737 213.09 84.1312 212.696C83.4888 212.302 83.0063 211.704 82.398 211.267C81.7896 210.829 81.0453 210.535 80.4737 210.055C79.8655 209.401 79.1064 208.88 78.2465 208.526C77.5565 208.236 76.5691 208.4 75.9257 208.052C75.2823 207.704 75.1425 206.645 74.5426 206.237C73.9428 205.829 72.9199 205.864 72.3704 205.398C71.821 204.932 71.5024 204.231 71.0088 203.712C70.5641 203.155 70.1514 202.577 69.7721 201.98C69.3442 201.42 68.4587 201.11 68.0934 200.505C67.735 199.915 67.5233 199.353 66.9283 199.396C66.6095 199.438 66.3043 199.555 66.0426 199.736C65.7808 199.917 65.5717 200.154 65.4357 200.425C66.0203 201.146 66.9575 201.686 67.4146 202.493C67.8971 203.299 68.3208 204.135 68.683 204.996C68.7786 205.101 67.9842 205.548 68.0824 205.649C68.0515 205.738 68.9373 205.57 68.9264 205.666C69.0965 206.149 68.5948 206.819 68.7291 207.307C69.0534 207.988 69.6533 208.554 69.9772 209.236C70.3012 209.919 70.9953 210.439 71.3193 211.122C71.6432 211.804 71.0204 212.817 71.3444 213.499C71.3188 214.554 71.7224 215.56 72.4765 216.323C72.5147 216.355 73.4709 216.011 73.5091 216.043C73.4826 216.663 73.1783 217.273 73.4762 217.916C73.7913 218.594 74.1632 219.224 74.5243 219.862C74.8854 220.499 75.4268 221.042 75.8448 221.652C76.2628 222.262 76.8262 222.759 77.2971 223.338C77.768 223.916 77.6163 224.967 78.1357 225.511C78.655 226.054 79.3783 226.444 79.941 226.951C80.5036 227.458 81.182 227.854 81.7834 228.325C82.3848 228.795 83.2774 228.911 83.9132 229.343C84.5489 229.776 84.6472 230.884 85.3124 231.28C85.9775 231.676 86.8076 231.855 87.4972 232.216C88.1868 232.576 88.7523 233.158 89.4631 233.485C90.1739 233.812 90.8878 234.171 91.617 234.464C92.3462 234.758 93.5223 234.133 94.2675 234.394C95.0127 234.655 95.5118 235.443 96.2698 235.676C97.0278 235.909 97.8124 236.065 98.5796 236.27C99.3467 236.475 100.13 236.631 100.905 236.81C101.681 236.989 102.333 237.608 103.115 237.76C103.897 237.913 104.889 237.299 105.677 237.428C106.416 237.548 107.049 238.119 107.794 238.21C108.54 238.302 109.328 238.157 110.078 238.226C110.828 238.295 111.586 238.279 112.338 238.333C113.09 238.388 113.82 238.581 114.573 238.629C115.325 238.676 116.059 238.87 116.811 238.919C117.563 238.967 118.335 238.867 119.086 238.924C119.836 238.981 120.651 238.685 121.397 238.758C122.143 238.832 122.951 238.991 123.694 239.089C124.446 239.408 125.004 240.188 125.756 240.507C126.508 240.827 127.126 241.393 127.878 241.712C128.631 242.031 129.67 241.826 130.422 242.144C131.174 242.463 131.679 243.237 132.431 243.557C133.184 243.877 134.082 243.928 134.834 244.247C135.587 244.566 136.662 244.293 137.415 244.612C138.075 244.89 138.16 246.211 138.82 246.501C139.48 246.791 140.539 246.359 141.195 246.653C141.85 246.947 142.385 247.443 143.039 247.739C143.693 248.035 144.282 248.439 144.938 248.733C145.593 249.027 145.986 249.787 146.644 250.076C147.302 250.365 148.126 250.296 148.788 250.578C149.395 251.086 150.257 251.262 150.894 251.699C151.552 252.151 152.305 252.422 152.99 252.8C153.693 253.188 154.474 253.356 155.202 253.671C155.943 253.992 156.267 255.142 157.031 255.39C157.795 255.639 158.684 255.699 159.476 255.88C160.268 256.062 161.07 256.366 161.879 256.485C162.688 256.604 163.61 256.199 164.435 256.255C165.261 256.31 166.067 256.541 166.898 256.539C167.73 256.537 168.557 256.26 169.389 256.207C170.221 256.153 171.082 256.585 171.911 256.485C172.741 256.384 173.586 256.282 174.411 256.14C175.235 255.999 176.083 255.897 176.9 255.719C177.717 255.54 178.389 254.735 179.199 254.52C180.009 254.305 180.887 254.36 181.686 254.119C182.485 253.878 183.306 253.682 184.095 253.414C184.883 253.146 185.406 252.186 186.184 251.894C186.671 251.712 187.372 252.576 187.856 252.39C188.467 252.491 189.013 251.714 189.633 251.524C190.379 251.296 191.231 251.429 191.963 251.189C192.696 250.949 193.489 250.847 194.218 250.593C194.946 250.338 195.389 249.338 196.111 249.068C196.833 248.799 197.833 249.191 198.548 248.906C199.264 248.621 199.781 247.885 200.494 247.587C201.208 247.288 202.159 247.486 202.86 247.175C203.561 246.864 203.917 245.854 204.612 245.526C205.307 245.198 206.091 245.042 206.779 244.7C207.467 244.357 208.229 244.128 208.909 243.771C209.717 243.638 210.648 243.85 211.441 243.611C212.203 243.259 212.945 242.87 213.665 242.446C214.419 242.13 215.181 241.803 215.911 241.423C216.642 241.042 217.597 240.99 218.3 240.567C219.002 240.143 219.277 239.158 219.952 238.721C220.627 238.285 221.452 238.044 222.119 237.593C222.785 237.142 223.466 236.706 224.121 236.24C224.776 235.774 225.374 235.241 226.017 234.762C226.661 234.284 227.58 234.107 228.213 233.616C228.845 233.125 229.56 232.705 230.177 232.202C230.795 231.698 231.423 231.181 232.034 230.669C232.657 230.144 232.832 229.164 233.444 228.632C234.057 228.1 234.29 227.211 234.892 226.665C235.494 226.118 236.443 225.898 237.033 225.342C237.624 224.786 238.444 224.428 239.025 223.862C239.606 223.296 239.749 222.369 240.316 221.793C240.882 221.217 241.774 220.903 242.328 220.317C242.883 219.731 243.424 219.132 243.965 218.537C244.507 217.943 245.099 217.379 245.629 216.774C246.158 216.169 246.487 215.423 247.004 214.809C247.52 214.195 247.881 213.481 248.385 212.858C248.888 212.235 249.398 211.623 249.888 210.992C250.378 210.361 250.709 209.639 251.186 209C251.663 208.36 252.894 208.163 253.356 207.515C253.818 206.867 254.31 206.224 254.759 205.569C255.193 204.934 254.726 203.82 255.147 203.18C255.568 202.54 256.86 202.345 257.269 201.7C257.677 201.054 257.472 200.103 257.868 199.451C258.264 198.799 258.628 198.134 259.011 197.474C259.394 196.815 259.514 196.046 259.885 195.381C260.256 194.716 261.644 194.481 262.001 193.81C262.358 193.139 261.595 192.015 261.934 191.34C262.273 190.666 263.649 190.381 263.979 189.699C264.31 189.017 264.148 188.155 264.465 187.469C264.782 186.784 265.33 186.174 265.633 185.484C265.937 184.793 265.58 183.892 265.868 183.2C266.156 182.508 266.503 181.835 266.779 181.135C267.054 180.436 267.329 179.744 267.59 179.04C267.851 178.336 267.917 177.591 268.164 176.884C268.41 176.177 268.866 175.529 269.098 174.818C269.329 174.106 269.335 173.355 269.553 172.64C269.771 171.925 270.382 171.298 270.584 170.583C270.785 169.868 270.773 169.113 270.96 168.393C271.147 167.673 271.997 167.064 272.169 166.341C272.34 165.618 272.014 164.822 272.17 164.097C272.326 163.373 272.624 162.668 272.764 161.941C272.905 161.214 273.503 160.534 273.624 159.804C273.745 159.075 272.886 158.259 272.994 157.53C273.102 156.8 273.114 156.074 273.205 155.342C273.297 154.611 274.132 153.924 274.208 153.192C274.283 152.46 274.496 151.728 274.554 150.996C274.612 150.263 273.816 149.523 273.858 148.79C273.899 148.058 274.298 147.329 274.322 146.597C274.346 145.865 274.318 145.133 274.324 144.402Z" fill="#FFD9A0"/>
    <path d="M170.843 110.504C171.444 111.035 172.085 111.525 172.763 111.971C173.279 112.582 173.839 113.158 174.441 113.698C175.17 114.079 175.93 114.412 176.714 114.693C177.449 115.016 178.451 114.833 179.228 115.052C180.005 115.271 180.891 115.006 181.701 115.12C182.512 115.234 183.198 116.2 184.026 116.21C184.871 116.117 185.711 115.974 186.54 115.782C187.374 115.709 188.205 115.586 189.026 115.413C189.826 115.221 190.401 114.341 191.19 114.048C191.561 113.963 191.904 113.783 192.177 113.529C192.45 113.274 192.642 112.957 192.73 112.614C192.869 112.279 192.922 111.923 192.883 111.575C192.845 111.226 192.717 110.894 192.509 110.607C192.106 109.892 191.947 109.021 191.1 108.73C190.743 108.209 190.023 108.351 189.314 108.173C188.504 107.97 188.085 106.627 187.276 106.424C186.467 106.221 185.521 106.407 184.713 106.205C183.905 106.002 183.06 105.896 182.251 105.693C181.441 105.489 180.554 105.512 179.744 105.309C178.935 105.106 178.222 104.623 177.412 104.42C176.925 104.255 176.401 104.188 175.875 104.224C175.348 104.26 174.83 104.398 174.355 104.628C173.416 104.594 172.84 105.563 172.128 106.06C171.772 106.26 171.468 106.531 171.239 106.852C171.01 107.172 170.862 107.534 170.807 107.909C170.703 108.636 170.174 109.744 170.843 110.504Z" fill="#FFD9A0"/>
    <path d="M141.674 93.3816C141.433 92.5755 141.131 91.7881 140.77 91.0251C140.401 90.2896 139.973 89.5819 139.491 88.9074C139.081 88.1916 138.612 87.5072 138.088 86.8597C137.582 86.2956 137.404 85.4867 136.834 84.9971C136.31 84.4454 135.749 83.924 135.154 83.4358C134.514 83.0135 133.551 83.0272 132.861 82.6753C132.139 82.3915 131.4 82.1445 130.645 81.9352C129.914 81.6563 129.411 80.8877 128.646 80.6782C127.882 80.4687 127.196 79.9178 126.41 79.7765C125.623 79.6352 124.773 79.6069 123.972 79.53C123.17 79.453 122.286 80.0763 121.48 80.058C120.675 80.0398 119.892 80.3386 119.084 80.3876C118.275 80.4366 117.43 79.7016 116.627 79.8061C115.825 79.9106 114.946 79.8038 114.154 79.9662C113.363 80.1287 112.582 80.5615 111.805 80.7823C111.029 81.0031 110.436 81.8267 109.661 82.0805C108.886 82.3342 108.062 82.4026 107.301 82.6856C106.54 82.9686 105.967 83.6528 105.218 83.9651C104.468 84.2774 103.485 84.0722 102.75 84.4124C102.015 84.7527 101.154 84.881 100.436 85.2505C99.7175 85.62 98.8485 85.7898 98.1484 86.1883C97.4482 86.5869 97.2912 87.7986 96.6117 88.2261C95.9321 88.6537 95.2469 89.0515 94.5909 89.5089C93.9349 89.9663 93.2388 90.363 92.6088 90.8504C91.9787 91.3377 90.8533 91.3301 90.2509 91.847C89.6486 92.364 89.6198 93.427 89.0548 93.9758C88.4898 94.5246 87.5056 94.7456 86.9749 95.3238C86.4442 95.902 86.2924 96.7594 85.8037 97.3678C85.3151 97.9763 84.6478 98.4772 84.2059 99.1143C83.764 99.7514 83.468 100.465 83.0773 101.13C82.6866 101.794 82.0274 102.353 81.6942 103.042C81.361 103.731 81.5092 104.577 81.2381 105.285C80.9671 105.993 80.3572 106.613 80.1523 107.343C79.9474 108.072 80.2091 108.897 80.0693 109.638C79.7062 110.299 78.8509 110.815 78.5296 111.495C78.2083 112.175 78.5401 113.057 78.2568 113.75C77.9735 114.442 76.8691 114.917 76.6404 115.623C76.409 116.426 76.2645 117.245 76.2091 118.067C76.1037 118.892 76.1058 119.721 76.2153 120.536C76.3012 121.371 76.5051 122.188 76.8218 122.965C77.1827 123.66 78.2436 124.029 78.8098 124.626C79.4212 125.156 80.0963 125.622 80.8233 126.015C81.4791 126.495 82.1841 126.917 82.9295 127.275C83.2061 127.394 83.5724 127.41 83.8507 127.516C84.6086 128.096 85.2174 129.118 86.2178 129.384C87.0924 129.534 88.1529 128.97 89.0285 129.119C89.826 129.18 90.6334 129.15 91.4325 129.03C92.203 129.071 92.963 129.857 93.7492 129.846C94.5353 129.835 95.3039 128.654 96.0869 128.595C96.8699 128.536 97.6402 128.802 98.4195 128.7C99.1989 128.598 99.9811 128.656 100.758 128.52C101.534 128.383 102.419 128.807 103.184 128.638C103.95 128.468 104.656 127.963 105.411 127.764C106.166 127.565 106.985 127.504 107.733 127.28C108.482 127.056 109.034 126.196 109.772 125.949C110.51 125.702 111.307 125.575 112.032 125.306C112.777 125.032 113.566 124.895 114.283 124.608C115.021 124.312 115.74 123.999 116.444 123.695C117.148 123.39 117.855 123.047 118.545 122.708C119.235 122.368 119.671 121.6 120.341 121.227C121.012 120.853 121.971 120.908 122.618 120.501C123.265 120.094 123.573 119.248 124.194 118.806C124.816 118.365 125.47 117.874 126.063 117.4C126.798 117.097 127.701 117.021 128.41 116.691C129.118 116.361 130.082 116.432 130.767 116.058C131.452 115.684 131.964 115 132.614 114.576C133.306 114.204 133.978 113.801 134.627 113.367C135.404 112.951 136.274 112.68 137.003 112.22C137.747 111.753 137.957 110.631 138.638 110.111C139.292 109.719 139.917 109.286 140.509 108.817C141.06 108.267 141.167 107.503 141.594 106.913C142.09 106.373 142.538 105.798 142.933 105.193C143.187 104.534 143.375 103.857 143.496 103.173C143.693 102.475 144.729 101.882 144.792 101.176C144.914 100.443 144.969 99.7043 144.959 98.9686C144.79 98.2568 144.559 97.5615 144.266 96.8895C144.065 96.2185 143.434 95.6822 143.109 95.0493C142.68 94.4583 142.201 93.9007 141.674 93.3816Z" fill="#FFF7E4"/>
    <path d="M281.527 45.7113C281.519 44.9468 281.862 44.1794 281.441 43.6499C280.989 43.0817 280.065 42.8905 279.29 42.5947C278.524 42.3822 277.704 42.2953 276.878 42.3393C276.085 42.3083 275.312 42.0946 274.513 42.0627C273.713 42.0309 272.921 42.0281 272.122 41.9962C271.324 41.9643 270.55 41.8022 269.751 41.774C268.952 41.7458 268.177 41.5857 267.38 41.5598C266.584 41.534 265.747 41.8502 264.948 41.8294C264.148 41.8086 263.436 41.0112 262.637 40.9953C261.837 40.9794 261.025 41.0562 260.224 41.0472C259.424 41.0381 258.575 41.6175 257.775 41.617C256.975 41.6165 256.204 41.1518 255.401 41.1582C254.598 41.1646 253.787 41.3241 252.986 41.3433C252.185 41.3625 251.379 41.1653 250.581 41.196C249.783 41.2267 248.975 42.0033 248.173 42.0464C247.371 42.0895 246.564 41.6992 245.762 41.7571C244.96 41.815 244.172 42.1131 243.372 42.1869C242.572 42.2606 241.778 42.3609 240.979 42.4511C240.181 42.5413 239.312 42.0925 238.516 42.2015C237.72 42.3106 237.05 43.225 236.256 43.3535C235.463 43.482 234.552 43.0067 233.764 43.1564C232.975 43.3062 232.26 43.7727 231.48 43.9441C230.7 44.1155 230.022 44.6155 229.245 44.8107C228.467 45.0058 227.496 44.6197 226.723 44.8404C225.951 45.061 225.054 44.999 224.295 45.2453C223.536 45.4915 222.972 46.1773 222.225 46.4524C221.477 46.7275 220.672 46.8898 219.94 47.1886C219.224 47.481 218.677 48.0762 217.956 48.4026C217.252 48.7213 216.628 49.1509 215.925 49.502C215.236 49.8469 214.602 50.2501 213.918 50.6204C213.234 50.9908 212.163 50.8721 211.498 51.2647C210.833 51.6573 210.44 52.3306 209.792 52.7437C209.144 53.1568 208.216 53.2787 207.593 53.7113C206.97 54.144 206.592 54.8023 205.991 55.2539C205.39 55.7056 205.087 56.388 204.51 56.8598C203.932 57.3315 203.164 57.6446 202.613 58.1352C202.062 58.6258 201.508 59.111 200.99 59.6206C200.471 60.1303 199.859 60.5905 199.374 61.1211C198.888 61.6516 198.938 62.4598 198.491 63.0103C198.043 63.5609 197.106 63.8747 196.699 64.4425C196.293 65.0104 196.082 65.6613 195.722 66.2468C195.362 66.8324 194.443 67.2568 194.135 67.8597C193.827 68.4626 193.552 69.1134 193.302 69.7315C193.051 70.3497 193.776 71.1482 193.589 71.7788C193.401 72.4094 192.705 72.9687 192.587 73.6083C192.469 74.248 192.299 74.8856 192.255 75.5285C192.156 76.1726 192.609 76.7972 192.614 77.4221C192.596 78.0557 192.657 78.6854 192.797 79.3015C192.681 79.641 192.27 80.011 192.274 80.3451C192.31 81.0834 192.629 81.7811 193.187 82.3435C193.705 82.9321 193.874 83.8362 194.735 84.1106C195.124 84.7473 196.271 84.7618 197.172 85.0739C197.968 85.2806 198.786 85.4393 199.618 85.549C200.443 85.7261 201.081 86.5913 201.938 86.639C202.766 86.6846 203.657 85.8593 204.556 85.7684C204.581 85.7671 204.674 86.0073 204.7 86.0059C205.494 86.13 206.217 86.4796 207.007 86.6144C207.796 86.7493 208.715 86.4948 209.506 86.6234C210.298 86.752 211.072 86.8864 211.873 86.9832C212.673 87.08 213.423 87.322 214.237 87.3714C215.048 87.3776 215.86 87.3494 216.672 87.287C217.508 87.2659 218.341 87.0008 219.177 86.9644C220.013 86.9279 220.84 87.2472 221.677 87.2003C222.513 87.1534 223.368 87.6803 224.203 87.6188C225.037 87.5573 225.828 86.6657 226.663 86.5876C227.499 86.5095 228.325 86.4767 229.158 86.3803C229.992 86.2839 230.824 86.2667 231.654 86.1508C232.485 86.0349 233.335 86.0707 234.161 85.9335C234.952 85.8027 235.829 86.0492 236.617 85.8934C237.405 85.7376 238.248 85.7191 239.028 85.5367C239.807 85.3543 240.313 84.308 241.083 84.0992C241.852 83.8903 242.861 84.3039 243.62 84.0662C244.379 83.8285 245.253 83.7807 245.999 83.5143C246.744 83.2479 247.413 82.7747 248.143 82.4755C248.872 82.1762 249.642 81.8981 250.349 81.5688C251.056 81.2395 251.662 80.7262 252.349 80.3643C253.036 80.0024 253.574 79.453 254.234 79.0576C254.894 78.6622 255.317 78.0431 255.946 77.6133C256.574 77.1834 257.675 77.1869 258.269 76.724C258.862 76.2612 258.725 75.2571 259.279 74.7621C259.832 74.2671 260.632 73.9824 261.142 73.4572C261.666 72.8758 261.995 72.2008 262.093 71.5028C262.585 71.0075 263.18 70.4765 263.653 69.973C264.126 69.4696 265.219 69.3109 265.675 68.7974C266.131 68.2839 266.062 67.484 266.5 66.9604C266.937 66.4368 267.094 65.7809 267.513 65.248C267.932 64.715 269.231 64.5867 269.632 64.0443C270.032 63.5019 270.067 62.7933 270.448 62.2433C270.83 61.6934 271.473 61.2395 271.835 60.6808C272.197 60.1221 271.615 59.2206 271.957 58.6533C272.299 58.0859 272.872 57.6137 273.195 57.0412C273.518 56.4688 274.58 56.1266 274.883 55.5473C275.187 54.9679 274.743 54.144 275.027 53.5578C275.192 53.4628 275.893 53.7731 276.058 53.6781C276.842 53.2255 277.137 52.3963 277.503 51.8313C277.814 51.1393 277.906 50.4056 277.77 49.6988C278.584 49.599 279.368 49.3428 280.054 48.9522C280.616 48.5316 280.706 47.8794 281.034 47.3245C281.361 46.8204 281.531 46.2658 281.527 45.7113Z" fill="#FFF0CB"/>
</svg>
