<svg width="20" height="20" viewBox="0 0 20 20" fill="none" xmlns="http://www.w3.org/2000/svg">
    <path d="M18 10.0001C18 12.1218 17.1571 14.1567 15.6569 15.657C14.1566 17.1573 12.1217 18.0001 10 18.0001C7.87827 18.0001 5.84344 17.1573 4.34315 15.657C2.84285 14.1567 2 12.1218 2 10.0001C2 7.87837 2.84285 5.84354 4.34315 4.34325C5.84344 2.84296 7.87827 2.00011 10 2.00011C10.76 2.00011 11.5 2.11011 12.2 2.31011L13.77 0.740106C12.5743 0.247671 11.2931 -0.00380543 10 0.000105971C8.68678 0.000105971 7.38642 0.258764 6.17317 0.761311C4.95991 1.26386 3.85752 2.00045 2.92893 2.92904C1.05357 4.8044 0 7.34794 0 10.0001C0 12.6523 1.05357 15.1958 2.92893 17.0712C3.85752 17.9998 4.95991 18.7364 6.17317 19.2389C7.38642 19.7414 8.68678 20.0001 10 20.0001C12.6522 20.0001 15.1957 18.9465 17.0711 17.0712C18.9464 15.1958 20 12.6523 20 10.0001H18ZM5.91 8.08011L4.5 9.50011L9 14.0001L19 4.00011L17.59 2.58011L9 11.1701L5.91 8.08011Z" fill="white"/>
</svg>
