<svg width="32" height="40" viewBox="0 0 32 40" fill="none" xmlns="http://www.w3.org/2000/svg">
    <path d="M30.6409 18.1022C29.7584 16.1487 28.4756 14.3954 26.8727 12.9519L25.55 11.7582C25.5051 11.7187 25.451 11.6908 25.3925 11.6767C25.3341 11.6626 25.273 11.6629 25.2146 11.6774C25.1563 11.692 25.1025 11.7204 25.0579 11.7602C25.0134 11.8 24.9794 11.85 24.9591 11.9057L24.3682 13.5733C24 14.6195 23.3227 15.688 22.3636 16.7386C22.3 16.8057 22.2273 16.8235 22.1773 16.828C22.1273 16.8325 22.05 16.8235 21.9818 16.761C21.9182 16.7073 21.8863 16.6268 21.8909 16.5464C22.0591 13.8549 21.2409 10.8193 19.45 7.51539C17.9682 4.77033 15.9091 2.62883 13.3363 1.13559L11.4591 0.0491866C11.2136 -0.0938783 10.9 0.0938942 10.9136 0.375553L11.0136 2.52153C11.0818 3.98794 10.9091 5.28447 10.5 6.36193C9.99999 7.68081 9.28181 8.9058 8.36363 10.0056C7.72464 10.7699 7.00041 11.4613 6.20454 12.0666C4.28775 13.5159 2.72915 15.3729 1.64545 17.4986C0.564426 19.6429 0.00131891 22.0037 0 24.397C0 26.5073 0.422727 28.5504 1.25909 30.4773C2.06666 32.3325 3.23208 34.0163 4.6909 35.4354C6.16363 36.866 7.87272 37.9927 9.77726 38.7751C11.75 39.5887 13.8409 40.0001 16 40.0001C18.1591 40.0001 20.25 39.5887 22.2227 38.7795C24.1226 38.0017 25.8502 36.8674 27.3091 35.4399C28.7818 34.0092 29.9363 32.3371 30.7409 30.4818C31.576 28.5601 32.0044 26.4913 32 24.4015C32 22.2198 31.5454 20.1006 30.6409 18.1022V18.1022Z" fill="#FE9456"/>
</svg>
