<svg width="28" height="40" viewBox="0 0 28 40" fill="none" xmlns="http://www.w3.org/2000/svg">
    <path d="M14 6.10352e-05C23.334 12.1801 28 20.8461 28 26.0001C28 27.8386 27.6379 29.6591 26.9343 31.3576C26.2307 33.0562 25.1995 34.5995 23.8995 35.8996C22.5995 37.1996 21.0561 38.2308 19.3576 38.9344C17.659 39.6379 15.8385 40.0001 14 40.0001C12.1615 40.0001 10.341 39.6379 8.64243 38.9344C6.94387 38.2308 5.40053 37.1996 4.1005 35.8996C2.80048 34.5995 1.76925 33.0562 1.06569 31.3576C0.36212 29.6591 -2.73959e-08 27.8386 0 26.0001C0 20.8461 4.666 12.1801 14 6.10352e-05Z" fill="#FE9456"/>
</svg>
