<svg width="19" height="46" viewBox="0 0 19 46" fill="none" xmlns="http://www.w3.org/2000/svg">
    <path fill-rule="evenodd" clip-rule="evenodd" d="M8.44708 0.451327C8.89756 -0.00975725 9.63654 -0.01835 10.0976 0.432135L17.6114 7.77321C18.0725 8.22369 18.0811 8.96266 17.6306 9.42375C17.1801 9.88483 16.4412 9.89343 15.9801 9.44294L10.4818 4.07108L10.9103 40.9211L16.2822 35.4229C16.7327 34.9618 17.4716 34.9532 17.9327 35.4037C18.3938 35.8542 18.4024 36.5931 17.9519 37.0542L10.6108 44.568C10.1603 45.0291 9.42137 45.0377 8.96029 44.5872L1.44649 37.2461C0.985401 36.7957 0.976809 36.0567 1.42729 35.5956C1.87778 35.1345 2.61675 35.1259 3.07784 35.5764L8.57609 40.9483L8.1476 4.09822L2.77574 9.59648C2.32526 10.0576 1.58628 10.0662 1.1252 9.61567C0.664115 9.16519 0.655522 8.42622 1.10601 7.96513L8.44708 0.451327Z" fill="#FE9456"/>
</svg>
