<svg width="36" height="31" viewBox="0 0 36 31" fill="none" xmlns="http://www.w3.org/2000/svg">
    <path d="M0 2.00006C0 0.895491 0.895431 6.10352e-05 2 6.10352e-05H34C35.1046 6.10352e-05 36 0.895492 36 2.00006V8.00006C36 9.10463 35.1046 10.0001 34 10.0001H2C0.895432 10.0001 0 9.10463 0 8.00006V2.00006Z" fill="#FE9456"/>
    <path d="M0 23.0001C0 21.8955 0.895431 21.0001 2 21.0001H34C35.1046 21.0001 36 21.8955 36 23.0001V29.0001C36 30.1046 35.1046 31.0001 34 31.0001H2C0.895432 31.0001 0 30.1046 0 29.0001V23.0001Z" fill="#FE9456"/>
</svg>
