<svg width="575" height="551" viewBox="0 0 575 551" fill="none" xmlns="http://www.w3.org/2000/svg">
    <path d="M575 313.9C575 374.927 525.272 424.4 463.93 424.4C402.588 424.4 352.86 374.927 352.86 313.9C352.86 252.873 402.588 203.4 463.93 203.4C525.272 203.4 575 252.873 575 313.9Z" fill="#FFF0CB"/>
    <path d="M423.774 378.5C423.774 411.361 396.998 438 363.967 438C330.937 438 304.16 411.361 304.16 378.5C304.16 345.639 330.937 319 363.967 319C396.998 319 423.774 345.639 423.774 378.5Z" fill="#FFF0CB"/>
    <path d="M344.316 336C344.316 392.333 298.414 438 241.79 438C185.167 438 139.264 392.333 139.264 336C139.264 279.667 185.167 234 241.79 234C298.414 234 344.316 279.667 344.316 336Z" fill="#FFF0CB"/>
    <path d="M167.459 303.7C167.459 342.194 136.092 373.4 97.3997 373.4C58.7069 373.4 27.3403 342.194 27.3403 303.7C27.3403 265.206 58.7069 234 97.3997 234C136.092 234 167.459 265.206 167.459 303.7Z" fill="#FFF0CB"/>
    <path d="M44.4279 203.4C44.4279 215.605 34.4824 225.5 22.214 225.5C9.94553 225.5 0 215.605 0 203.4C0 191.195 9.94553 181.3 22.214 181.3C34.4824 181.3 44.4279 191.195 44.4279 203.4Z" fill="#FFF0CB"/>
    <path d="M437.444 171.95C437.444 175.236 434.767 177.9 431.464 177.9C428.161 177.9 425.483 175.236 425.483 171.95C425.483 168.664 428.161 166 431.464 166C434.767 166 437.444 168.664 437.444 171.95Z" fill="#FFF0CB"/>
    <path d="M441.816 1.75693C453.512 -4.09094 462.284 6.43522 462.284 7.60479C466.572 7.21494 476.786 8.54046 483.336 16.9614C491.523 27.4875 480.412 59.6508 480.412 69.5922C480.412 77.5453 488.599 76.4147 492.693 74.8553C489.574 80.7031 477.839 92.048 455.851 90.6445C428.366 88.8902 438.307 55.5573 431.29 43.2768C424.273 30.9963 430.12 7.6048 441.816 1.75693Z" fill="#FE9456"/>
    <path d="M427.197 81.2879C433.746 76.1418 433.045 60.4305 431.875 53.2182L451.758 47.3703C450.003 57.5066 447.547 78.8318 451.758 83.0423C457.021 88.3054 475.149 84.2119 482.167 87.1358C489.184 90.0597 507.312 170.76 509.067 173.684C510.821 176.608 517.254 183.626 521.347 191.813C525.441 200 540.645 255.554 543.569 258.478C546.493 261.402 561.698 260.233 569.3 265.496C575.382 269.706 574.953 280.895 573.978 285.963C571.834 283.819 567.078 278.829 565.206 276.022C563.335 273.215 552.731 271.733 547.663 271.344C551.366 274.852 558.306 281.987 556.435 282.455C554.095 283.039 540.645 274.268 534.213 269.589C527.78 264.911 499.125 192.397 497.371 185.965C495.968 180.819 479.243 145.225 471.056 128.071L453.512 122.223L397.957 134.504C394.838 137.622 388.25 145.147 386.846 150.293C385.092 156.725 407.899 181.871 412.577 195.321C417.255 208.771 393.279 235.087 388.601 228.654C383.922 222.222 390.355 210.526 393.279 205.263C396.203 200 399.712 196.491 399.712 191.813C399.712 187.134 358.192 161.404 357.022 155.556C355.853 149.708 400.881 88.3054 407.899 85.9662C414.916 83.6271 419.01 87.7206 427.197 81.2879Z" fill="#FFD3B2"/>
    <path d="M465.793 511.106V494.732L482.167 490.639V507.597C481.972 508.962 480.295 511.925 475.149 512.861C470.003 513.796 466.767 512.081 465.793 511.106Z" fill="#FFD3B2"/>
    <path d="M534.797 505.843L528.365 491.223L544.154 487.13L546.493 502.919L534.797 505.843Z" fill="#FFD3B2"/>
    <path d="M410.823 85.3813C412.772 84.9914 417.139 84.3287 419.01 84.7965C416.281 90.6444 411.408 103.042 413.747 105.849C416.671 109.358 443.571 109.358 447.664 108.773C450.939 108.305 455.656 92.9836 457.606 85.3813C458.775 84.9915 461.582 84.2119 463.454 84.2119C465.325 84.2119 467.352 85.3814 468.132 85.9662C465.793 91.0344 460.764 103.393 459.36 112.282C457.957 121.17 465.793 124.172 469.886 124.562L472.81 132.164C470.276 134.309 463.921 141.521 458.775 153.217C453.629 164.912 452.732 179.532 452.927 185.38L412.577 190.058C412.382 187.719 412.109 181.637 412.577 176.023C413.045 170.409 406.534 148.733 403.221 138.597C400.297 138.987 393.981 137.077 392.11 126.317C390.238 115.556 403.805 94.543 410.823 85.3813Z" fill="#FE9456"/>
    <path d="M434.799 179.532C428.717 180 417.45 178.168 412.577 177.193V189.473C409.068 197.855 401.349 222.455 398.542 253.8C395.033 292.981 430.705 383.623 433.629 384.792C436.553 385.962 437.723 386.547 440.647 389.471C442.986 391.81 457.606 461.399 464.623 495.902C466.183 496.487 470.003 497.656 472.81 497.656C475.617 497.656 480.217 495.317 482.167 494.147C481.777 466.078 480.529 407.95 478.658 399.997C476.319 390.055 462.284 377.19 459.36 371.342C457.021 366.664 445.91 292.981 440.647 256.724L444.156 253.8C457.995 296.489 486.026 382.804 487.43 386.547C489.184 391.225 489.769 405.26 490.938 413.447C491.874 419.996 515.889 469.976 527.78 494.147C529.534 494.537 534.096 495.083 538.306 494.147C542.517 493.212 544.739 490.249 545.324 488.884C541.23 466.467 532.458 419.295 530.119 409.938C527.195 398.242 509.067 384.792 503.804 377.19C498.541 369.588 503.804 278.361 503.804 271.928C503.804 265.496 482.751 215.789 475.149 204.678C469.067 195.789 458.97 187.719 454.682 184.795C454.292 184.21 453.395 182.69 452.927 181.286C452.46 179.883 452.732 177.193 452.927 176.023C449.419 176.998 440.881 179.064 434.799 179.532Z" fill="#6D9FCD"/>
    <path d="M439.477 20.4701C443.22 19.0666 449.614 18.3259 452.343 18.131C451.953 20.86 451.407 27.0197 452.343 29.8267C453.278 32.6337 455.851 36.4543 457.021 38.0137C459.555 38.2087 464.155 40.002 462.284 45.616C460.413 51.2299 455.656 50.6841 453.512 49.7095C447.274 54.1928 433.162 62.107 426.612 57.8965C420.062 53.686 426.612 36.6492 430.705 28.6571C432.07 26.5129 435.735 21.8736 439.477 20.4701Z" fill="#FFE1CB"/>
    <path d="M462.868 503.504C464.428 504.479 469.067 506.779 475.149 508.182L482.166 507.013C483.141 508.182 485.792 511.574 488.599 515.785C491.406 519.995 493.277 526.116 493.862 528.65C494.057 530.015 493.628 533.328 490.353 535.667C486.26 538.591 473.979 533.328 467.547 532.744C461.114 532.159 444.155 538.007 438.892 537.422C433.629 536.837 421.933 534.498 421.933 527.48C421.933 520.463 438.307 519.878 445.91 518.709C451.991 517.773 459.75 508.182 462.868 503.504Z" fill="#FE9456"/>
    <path d="M540.06 500.58C536.318 501.984 533.043 506.233 531.873 508.182C533.823 511.106 537.838 517.773 538.306 521.048C538.891 525.141 538.306 526.896 538.306 529.819C538.306 532.743 557.604 552.041 564.037 550.287C570.469 548.533 569.3 534.498 568.715 528.65C568.13 522.802 557.019 513.445 554.68 511.106C552.809 509.235 550.781 503.699 550.002 501.165C548.247 500.385 543.803 499.177 540.06 500.58Z" fill="#FE9456"/>
    <path d="M235.587 28.5068C232.743 17.1303 224.78 -3.91649 195.201 0.63411C186.479 1.77185 168.694 11.2145 167.328 39.8833C165.963 68.552 194.063 92.784 208.284 101.316C216.627 104.54 235.132 109.052 242.413 101.316C251.515 91.6463 241.845 79.1322 235.587 64.9116C229.33 50.691 238.432 39.8833 235.587 28.5068Z" fill="#FE9456"/>
    <path d="M97.3633 480.154C94.1779 472.418 112.722 465.175 122.392 462.52L142.869 471.053C141.921 475.982 140.366 488.231 141.732 497.787C143.438 509.733 155.952 507.457 159.934 512.008C163.916 516.558 158.796 523.384 146.851 523.384C134.906 523.384 120.685 498.925 117.272 495.512C113.859 492.099 101.345 489.824 97.3633 480.154Z" fill="#FE9456"/>
    <path d="M182.33 520.174C174.607 516.957 182.598 498.723 187.559 490.008L208.072 481.561C210.887 485.717 207.956 492.662 215.679 498.454C225.332 505.694 239.224 500.229 245.258 500.631C251.291 501.034 256.338 507.303 247.892 515.75C239.445 524.197 212.094 516.957 207.267 516.957C202.441 516.957 191.983 524.197 182.33 520.174Z" fill="#FE9456"/>
    <path d="M105.327 227.595C105.327 208.938 124.667 180.762 134.337 169.007L215.11 157.63L229.331 191.191C227.624 209.014 225.235 248.983 229.331 266.276C234.45 287.891 235.019 360.7 229.331 368.095C223.642 375.49 213.972 407.344 211.128 425.547C208.853 440.108 210.18 475.982 211.128 492.099C209.422 493.616 204.871 496.763 200.321 497.218C195.77 497.673 189.323 493.995 186.669 492.099L167.329 422.702L141.163 476.172C138.887 477.31 132.972 478.902 127.511 476.172C122.05 473.442 119.168 466.691 118.41 463.658C118.22 442.611 118.41 397.219 120.685 384.022C123.529 367.526 131.493 356.719 134.337 351.03C137.181 345.342 105.327 250.917 105.327 227.595Z" fill="#6D9FCD"/>
    <path d="M178.832 56.3792C180.197 53.6488 185.089 42.3482 187.364 37.0391L207.273 64.9115C206.325 68.1349 205.225 75.3779 208.411 78.5633C212.393 82.5451 234.008 87.0957 236.283 100.179C238.558 113.262 233.439 151.942 234.008 161.612C234.577 171.282 244.247 182.089 245.384 193.466C246.522 204.842 233.439 234.99 233.439 239.541C233.439 244.091 240.834 252.624 242.54 263.431C243.905 272.078 231.164 286.184 231.164 286.184C231.164 286.184 228.433 242.498 218.754 213.375C220.867 201.03 220.298 194.509 215.237 183.796C188.312 185.313 132.757 186.071 125.931 176.97C117.399 165.594 123.087 87.6645 134.464 76.288C143.565 67.1868 162.905 66.0492 171.437 66.618C173.333 64.3427 177.467 59.1095 178.832 56.3792Z" fill="#FFD3B3"/>
    <path d="M180.98 27.3692C182.346 20.9983 188.375 21.6809 191.219 22.8186C190.65 27.7484 190.195 37.8355 192.926 38.7456C196.339 39.8833 196.907 34.195 202.596 30.2132C207.146 27.0278 214.351 26.2315 217.385 26.2315C215.868 29.2652 214.541 36.4703 221.367 41.0209C228.193 45.5715 226.486 50.5013 224.78 52.3974C218.333 60.1713 208.284 76.288 194.632 69.4622C185.696 64.9942 185.721 46.1403 186.669 37.608C184.204 36.8496 179.615 33.74 180.98 27.3692Z" fill="#FFE1CB"/>
    <path d="M156.521 66.049C154.701 66.5041 153.487 67.7555 153.108 68.3243C155.383 71.3581 160.503 79.0184 162.778 85.3892C165.053 91.76 164.105 105.108 163.347 110.986C162.209 113.262 159.479 119.405 157.659 125.776C155.839 132.147 155.004 143.22 154.815 147.96L212.835 167.869C213.972 165.593 216.361 160.588 216.817 158.768C217.272 156.947 217.006 150.804 216.817 147.96C218.713 147.391 223.529 144.433 227.624 137.152C231.72 129.871 229.331 119.329 227.624 114.968C228.003 112.693 228.193 105.867 225.918 96.7657C223.642 87.6645 215.489 81.2178 211.697 79.1321C213.593 82.3555 217.727 89.7123 219.092 93.3528C220.457 96.9932 220.798 107.763 220.798 112.693C217.006 113.451 207.488 115.082 199.752 115.537C192.016 115.992 179.084 108.901 173.586 105.298C172.827 99.7994 170.969 87.892 169.604 84.2516C168.239 80.6111 162.968 70.9789 160.503 66.6179C159.934 66.2386 158.341 65.594 156.521 66.049Z" fill="#FE9456"/>
</svg>
