<svg width="91" height="25" viewBox="0 0 91 25" fill="none" xmlns="http://www.w3.org/2000/svg">
    <path d="M33.9129 5.11285H28.8939C28.7278 5.11275 28.567 5.1739 28.4407 5.28529C28.3144 5.39669 28.2307 5.551 28.2048 5.72043L26.1749 19.006C26.1656 19.0677 26.1693 19.1307 26.1858 19.1907C26.2024 19.2507 26.2313 19.3064 26.2706 19.3537C26.31 19.4011 26.3588 19.4391 26.4137 19.4651C26.4686 19.4912 26.5284 19.5046 26.5888 19.5045H28.9849C29.1512 19.5046 29.312 19.4433 29.4384 19.3318C29.5647 19.2202 29.6483 19.0658 29.674 18.8962L30.2215 15.3129C30.2472 15.1434 30.3307 14.989 30.4569 14.8775C30.5831 14.766 30.7437 14.7046 30.9099 14.7045H32.4987C35.8048 14.7045 37.7129 13.053 38.2112 9.78028C38.4357 8.34846 38.2207 7.22346 37.5712 6.43558C36.8579 5.57043 35.5927 5.11285 33.9129 5.11285ZM34.4919 9.96513C34.2174 11.8242 32.8414 11.8242 31.5109 11.8242H30.7536L31.2849 8.35225C31.3004 8.25067 31.3506 8.15816 31.4263 8.09136C31.5021 8.02456 31.5984 7.98786 31.6981 7.98785H32.0452C32.9515 7.98785 33.8065 7.98785 34.2483 8.52119C34.5117 8.83937 34.5924 9.3121 34.4919 9.96513ZM48.9154 9.90528H46.512C46.4124 9.90528 46.316 9.94198 46.2403 10.0088C46.1645 10.0756 46.1144 10.1681 46.0988 10.2697L45.9924 10.9636L45.8243 10.7121C45.304 9.93255 44.1438 9.67195 42.9857 9.67195C40.3298 9.67195 38.0614 11.7485 37.6197 14.6613C37.39 16.1144 37.7165 17.5038 38.515 18.4727C39.2474 19.3636 40.2954 19.7348 41.5422 19.7348C43.6822 19.7348 44.8688 18.3144 44.8688 18.3144L44.7617 19.0038C44.7521 19.0654 44.7557 19.1284 44.772 19.1885C44.7883 19.2486 44.8171 19.3044 44.8563 19.3519C44.8955 19.3994 44.9442 19.4376 44.9991 19.4638C45.0539 19.49 45.1137 19.5037 45.1741 19.5038H47.339C47.5053 19.5038 47.6661 19.4426 47.7925 19.331C47.9188 19.2195 48.0024 19.065 48.0282 18.8954L49.3271 10.4038C49.3367 10.3423 49.3332 10.2794 49.3169 10.2194C49.3006 10.1594 49.2719 10.1038 49.2327 10.0564C49.1936 10.009 49.1449 9.97095 49.0902 9.94486C49.0354 9.91876 48.9757 9.90526 48.9154 9.90528ZM45.5653 14.7341C45.3334 16.1515 44.2436 17.103 42.8536 17.103C42.1557 17.103 41.598 16.8719 41.2398 16.4341C40.8846 15.9992 40.7496 15.3803 40.8626 14.6909C41.0791 13.2856 42.1873 12.303 43.5559 12.303C44.2384 12.303 44.7932 12.5371 45.1587 12.9788C45.5249 13.425 45.6702 14.0477 45.5653 14.7341ZM61.7156 9.90528H59.3004C59.1865 9.90546 59.0744 9.93434 58.9737 9.98939C58.8731 10.0444 58.787 10.124 58.7229 10.2212L55.3918 15.2863L53.9798 10.4189C53.9365 10.2705 53.848 10.1404 53.7275 10.0478C53.6069 9.95534 53.4608 9.90535 53.3106 9.90528H50.9372C50.8706 9.9051 50.8049 9.92134 50.7456 9.95266C50.6863 9.98399 50.6351 10.0295 50.5962 10.0854C50.5574 10.1412 50.532 10.2059 50.5223 10.2739C50.5126 10.3419 50.5187 10.4114 50.5402 10.4765L53.2005 18.5356L50.6994 22.1803C50.655 22.2449 50.6286 22.3209 50.6232 22.4C50.6178 22.479 50.6336 22.5581 50.6689 22.6285C50.7041 22.6989 50.7575 22.7579 50.823 22.7991C50.8886 22.8404 50.9639 22.8621 51.0407 22.8621H53.4529C53.5655 22.8623 53.6765 22.8342 53.7764 22.7804C53.8762 22.7266 53.9619 22.6485 54.0261 22.553L62.059 10.5833C62.1026 10.5186 62.1281 10.4427 62.1329 10.364C62.1376 10.2854 62.1215 10.2069 62.0861 10.137C62.0507 10.0671 61.9975 10.0086 61.9321 9.96778C61.8668 9.92693 61.7919 9.90532 61.7156 9.90528Z" fill="white"/>
    <path d="M69.7118 5.11288H64.6921C64.5261 5.11295 64.3656 5.17419 64.2394 5.28557C64.1132 5.39694 64.0296 5.55116 64.0038 5.72045L61.9739 19.0061C61.9644 19.0676 61.968 19.1305 61.9844 19.1905C62.0008 19.2505 62.0296 19.3061 62.0688 19.3534C62.108 19.4008 62.1567 19.4389 62.2115 19.465C62.2663 19.491 62.326 19.5045 62.3863 19.5045H64.9622C65.0784 19.5044 65.1908 19.4614 65.279 19.3833C65.3673 19.3053 65.4256 19.1973 65.4436 19.0788L66.0197 15.3129C66.0454 15.1434 66.1289 14.9891 66.2551 14.8775C66.3813 14.766 66.542 14.7046 66.7081 14.7045H68.2962C71.603 14.7045 73.5103 13.053 74.0094 9.7803C74.2347 8.34849 74.0182 7.22349 73.3687 6.43561C72.6561 5.57045 71.3917 5.11288 69.7118 5.11288ZM70.2908 9.96515C70.0171 11.8242 68.6411 11.8242 67.3099 11.8242H66.5532L67.0853 8.35227C67.1006 8.25069 67.1505 8.15811 67.2262 8.09127C67.3018 8.02443 67.3982 7.98775 67.4977 7.98788H67.8449C68.7505 7.98788 69.6061 7.98788 70.0479 8.52121C70.3114 8.83939 70.3914 9.31212 70.2908 9.96515ZM84.7136 9.9053H82.3117C82.212 9.90502 82.1156 9.94164 82.0399 10.0085C81.9643 10.0754 81.9143 10.1681 81.8992 10.2697L81.7928 10.9636L81.624 10.7121C81.1037 9.93258 79.9442 9.67197 78.7861 9.67197C76.1303 9.67197 73.8626 11.7485 73.4208 14.6614C73.1918 16.1144 73.5169 17.5038 74.3154 18.4727C75.0493 19.3636 76.0958 19.7348 77.3426 19.7348C79.4826 19.7348 80.6693 18.3144 80.6693 18.3144L80.5621 19.0038C80.5525 19.0656 80.5561 19.1287 80.5725 19.1889C80.5889 19.2491 80.6178 19.305 80.6572 19.3525C80.6965 19.4001 80.7454 19.4382 80.8005 19.4643C80.8555 19.4905 80.9154 19.5039 80.976 19.5038H83.1402C83.3063 19.5037 83.467 19.4423 83.5932 19.3308C83.7194 19.2193 83.8029 19.0649 83.8286 18.8955L85.1283 10.4038C85.1375 10.3421 85.1336 10.2791 85.117 10.2191C85.1004 10.159 85.0714 10.1034 85.032 10.0561C84.9926 10.0087 84.9438 9.97072 84.8888 9.94469C84.8339 9.91867 84.7741 9.90523 84.7136 9.9053ZM81.3635 14.7341C81.1331 16.1515 80.0418 17.103 78.6518 17.103C77.9554 17.103 77.3962 16.872 77.0381 16.4341C76.6829 15.9992 76.5493 15.3803 76.6608 14.6909C76.8788 13.2856 77.9855 12.303 79.3542 12.303C80.0367 12.303 80.5915 12.5371 80.9569 12.9788C81.3246 13.425 81.4699 14.0477 81.3635 14.7341ZM87.5471 5.47727L85.4871 19.0061C85.4777 19.0676 85.4813 19.1305 85.4977 19.1905C85.514 19.2505 85.5428 19.3061 85.582 19.3534C85.6212 19.4008 85.6699 19.4389 85.7247 19.465C85.7796 19.491 85.8392 19.5045 85.8996 19.5045H87.9705C88.3147 19.5045 88.6068 19.247 88.6596 18.8962L90.691 5.61136C90.7004 5.54978 90.6968 5.48683 90.6805 5.42682C90.6641 5.36681 90.6353 5.31117 90.5961 5.26374C90.5569 5.2163 90.5082 5.17819 90.4534 5.15201C90.3986 5.12584 90.339 5.11223 90.2786 5.11212H87.9595C87.86 5.11249 87.7638 5.14943 87.6882 5.21634C87.6126 5.28325 87.5626 5.37575 87.5471 5.47727Z" fill="white"/>
    <path d="M5.33248 22.0864L5.71629 19.5697L4.86133 19.5492H0.778809L3.61595 0.978791C3.6244 0.922049 3.65232 0.870331 3.69462 0.833062C3.73692 0.795794 3.79078 0.775457 3.84639 0.77576H10.7301C13.0154 0.77576 14.5925 1.26667 15.4159 2.23561C15.8019 2.69015 16.0477 3.16515 16.1666 3.68788C16.2914 4.23637 16.2936 4.89167 16.1718 5.69091L16.1629 5.74925V6.26137L16.549 6.48712C16.8437 6.64124 17.1085 6.84973 17.3305 7.10228C17.6608 7.49091 17.8743 7.98485 17.9646 8.57046C18.0578 9.17273 18.027 9.8894 17.8743 10.7008C17.6982 11.6341 17.4135 12.447 17.0289 13.1121C16.6896 13.708 16.2334 14.2241 15.6896 14.6273C15.1788 15.0015 14.5719 15.2856 13.8857 15.4674C13.2209 15.6462 12.4628 15.7364 11.6313 15.7364H11.0956C10.7125 15.7364 10.3404 15.8788 10.0483 16.1341C9.75667 16.3921 9.56318 16.7486 9.50233 17.1402L9.46197 17.3667L8.78387 21.8023L8.75305 21.9652C8.74498 22.0167 8.73103 22.0424 8.71049 22.0599C8.69058 22.0767 8.66575 22.086 8.64003 22.0864H5.33248Z" fill="white"/>
    <path d="M16.9143 5.80835C16.8938 5.94396 16.8703 6.08259 16.8439 6.22502C15.9361 11.0364 12.8303 12.6985 8.86374 12.6985H6.84413C6.35904 12.6985 5.95028 13.0621 5.87469 13.5561L4.84066 20.3258L4.54785 22.2447C4.53619 22.3208 4.54064 22.3987 4.5609 22.4728C4.58117 22.547 4.61676 22.6157 4.66524 22.6744C4.71371 22.733 4.77391 22.78 4.8417 22.8123C4.90948 22.8446 4.98324 22.8613 5.05789 22.8614H8.63991C9.06409 22.8614 9.42442 22.5432 9.4912 22.1114L9.52643 21.9235L10.2009 17.5053L10.2442 17.2629C10.3102 16.8296 10.6713 16.5114 11.0954 16.5114H11.6312C15.1016 16.5114 17.8184 15.0568 18.6125 10.8477C18.9442 9.08941 18.7725 7.62123 17.8948 6.58865C17.6166 6.26923 17.2843 6.00481 16.9143 5.80835Z" fill="white"/>
    <path d="M15.9645 5.41744C15.6746 5.33088 15.3798 5.26333 15.0817 5.21517C14.4926 5.12172 13.8973 5.07688 13.3013 5.08108H7.90587C7.70053 5.08092 7.50192 5.15659 7.34592 5.29442C7.18993 5.43225 7.08685 5.62315 7.05531 5.8326L5.90754 13.3371L5.87451 13.5561C5.91027 13.3172 6.02767 13.0994 6.20549 12.9421C6.3833 12.7848 6.60978 12.6984 6.84396 12.6985H8.86357C12.8301 12.6985 15.9359 11.0356 16.8437 6.22502C16.8708 6.0826 16.8936 5.94396 16.9141 5.80835C16.6746 5.67868 16.4249 5.56996 16.1678 5.48335C16.1004 5.46026 16.0326 5.43829 15.9645 5.41744Z" fill="white"/>
    <path d="M7.05537 5.83258C7.08664 5.62307 7.18966 5.43208 7.34574 5.29432C7.50181 5.15656 7.70058 5.08116 7.90592 5.08182H13.3013C13.9405 5.08182 14.5372 5.125 15.0817 5.21591C15.4502 5.27569 15.8136 5.3651 16.1686 5.48333C16.4364 5.575 16.6852 5.68333 16.9149 5.80833C17.185 4.0303 16.9127 2.8197 15.9814 1.72348C14.9548 0.516667 13.1017 0 10.7306 0H3.84689C3.36253 0 2.94936 0.363636 2.87451 0.858333L0.00727245 19.6197C-0.00608265 19.7068 -0.00100149 19.7959 0.0221664 19.8807C0.0453343 19.9656 0.0860391 20.0443 0.141481 20.1114C0.196922 20.1785 0.265785 20.2324 0.343332 20.2694C0.420879 20.3064 0.50527 20.3256 0.5907 20.3258H4.84055L5.90759 13.3371L7.05537 5.83258Z" fill="white"/>
</svg>
