<svg width="50" height="50" viewBox="0 0 50 50" fill="none" xmlns="http://www.w3.org/2000/svg">
    <path d="M25 6.25C14.6609 6.25 6.25 14.6609 6.25 25C6.25 35.3391 14.6609 43.75 25 43.75C35.3391 43.75 43.75 35.3391 43.75 25C43.75 14.6609 35.3391 6.25 25 6.25ZM25 9.375C33.6484 9.375 40.625 16.3516 40.625 25C40.625 33.6484 33.6484 40.625 25 40.625C16.3516 40.625 9.375 33.6484 9.375 25C9.375 16.3516 16.3516 9.375 25 9.375ZM25.0484 12.2562C23.2099 12.2967 21.4601 13.055 20.1735 14.3691C18.8869 15.6831 18.1657 17.4485 18.1641 19.2875V21.1922C18.1641 21.5203 18.4203 21.7766 18.75 21.7766H20.2156C20.2926 21.7774 20.369 21.7629 20.4402 21.7338C20.5115 21.7047 20.5763 21.6617 20.6307 21.6073C20.6851 21.5528 20.7282 21.4881 20.7572 21.4168C20.7863 21.3455 20.8008 21.2692 20.8 21.1922V19.2859C20.8 16.9063 22.625 14.8797 25 14.7953C27.4969 14.7031 29.5906 16.7109 29.5906 19.1891V21.1906C29.5906 21.5203 29.8469 21.7781 30.1766 21.7781H31.5922C31.6696 21.7792 31.7464 21.7647 31.818 21.7355C31.8897 21.7064 31.9548 21.6631 32.0094 21.6083C32.0641 21.5535 32.1071 21.4883 32.1361 21.4166C32.1651 21.3448 32.1794 21.268 32.1781 21.1906V19.3844C32.1781 15.4547 28.9797 12.1812 25.0484 12.2562ZM16.3094 22.4125C15.5891 22.4125 14.9906 22.9609 14.9906 23.6812V33.7891C14.9906 34.5078 15.5891 35.0594 16.3094 35.0594H33.9844C34.7031 35.0594 35.3031 34.5094 35.3031 33.7891V23.6812C35.3031 22.9625 34.7047 22.4125 33.9844 22.4125H16.3094ZM16.5531 23.6812H17.1391C17.2164 23.6825 17.2903 23.7139 17.3449 23.7687C17.3995 23.8236 17.4304 23.8976 17.4313 23.975V33.5453C17.43 33.6224 17.3989 33.696 17.3443 33.7506C17.2898 33.8051 17.2162 33.8363 17.1391 33.8375H16.5531C16.4757 33.8367 16.4017 33.8057 16.3469 33.7511C16.292 33.6965 16.2606 33.6227 16.2594 33.5453V23.975C16.2602 23.8973 16.2914 23.8231 16.3463 23.7682C16.4012 23.7133 16.4755 23.6821 16.5531 23.6812ZM25.0984 24.9516C26.4703 24.9516 27.5875 26.0688 27.5875 27.4422C27.5908 27.8759 27.4797 28.3029 27.2655 28.6801C27.0512 29.0572 26.7414 29.3713 26.3672 29.5906V31.9344C26.3672 32.275 26.0734 32.5203 25.7328 32.5203H24.4625C24.1203 32.5203 23.8281 32.275 23.8281 31.9344V29.5906C23.4539 29.3713 23.1441 29.0572 22.9299 28.6801C22.7156 28.3029 22.6045 27.8759 22.6078 27.4422C22.6078 26.0672 23.725 24.9516 25.0984 24.9516Z" fill="#FFE1CB"/>
</svg>
