<svg width="50" height="50" viewBox="0 0 50 50" fill="none" xmlns="http://www.w3.org/2000/svg">
    <path d="M43.0654 1.496H44.5163V2.95717H43.0654V1.496ZM43.0654 2.95717H40.3767V4.41833H43.0654V2.95717ZM40.3767 4.41833V7.26733H39.0332V4.41833H40.3767ZM40.3767 7.26733H41.7565V8.657H40.3767V7.26733ZM41.7565 7.26733V5.896H43.2784V7.26733H41.7565ZM40.3767 8.657V11.6142H39.1934V12.7728H37.9373V14.465H36.8577V15.9078H35.4778V14.4833H34.0979L34.0797 15.9078H35.4778V17.4222H34.0979L34.1162 19.0777H32.931L32.9493 20.4673H31.8515L31.8333 22.0348C29.7653 25.0323 28.3326 28.1783 27.0401 31.317C26.8763 31.7148 26.8162 32.0412 26.6159 32.2777C26.1808 32.791 25.5328 32.9523 25.0048 32.9377C24.0182 32.9102 23.148 32.4463 22.6892 31.3702C21.1419 27.7585 20.3773 25.2285 16.1265 20.4857C15.4421 19.7212 15.6004 18.7458 16.1447 18.4378C16.6654 18.139 17.3954 18.3535 18.2128 18.8118C20.5029 20.0952 21.7772 21.406 24.4933 25.0452C25.4818 22.6417 27.1912 19.3912 29.3211 15.8712H30.3114V14.4833H31.249V13.1083H32.6289V10.9193H34.1162L34.0979 12.309H35.4778V10.9193H34.1162V9.67267H35.3541V8.657H37.6351V10.0833H39.0332V8.657H40.3767ZM37.6351 8.657V7.26733H39.0332V8.657H37.6351ZM37.6351 7.26733H36.2388V5.93267H37.6351V7.26733ZM40.3767 4.42567H41.7547V5.88867H40.3767V4.42567ZM44.5091 2.96083H46V4.42567H44.5072V2.96083H44.5091ZM33.3024 8.33067V9.691H31.6039V11.9717H29.9055V13.3173C28.0447 12.336 25.9748 11.8251 23.8743 11.8287C16.6891 11.8287 10.8545 17.6862 10.8545 24.9223C10.8545 32.1567 16.6891 38.0142 23.8743 38.0142C25.5816 38.0147 27.2723 37.6763 28.8497 37.0186C30.4271 36.3608 31.8604 35.3965 33.0676 34.1807C34.2749 32.9649 35.2324 31.5215 35.8856 29.9329C36.5387 28.3443 36.8746 26.6417 36.8741 24.9223C36.8775 22.7929 36.3631 20.695 35.3759 18.8118H36.6975V17.1013H37.8299V15.3908H38.9622V13.9663H39.4537C41.6947 17.1735 42.8947 21.0007 42.8889 24.9223C42.8889 35.4567 34.4056 44 23.9435 44C13.4833 44 5 35.4567 5 24.9223C5 14.3862 13.4833 5.84283 23.9435 5.84283C27.3477 5.84283 30.5408 6.74667 33.3006 8.33067H33.3024ZM44.5091 0H46V1.49783H44.5072V0H44.5091Z" fill="#FFE1CB"/>
</svg>
