<svg width="50" height="50" viewBox="0 0 50 50" fill="none" xmlns="http://www.w3.org/2000/svg">
    <path d="M7.8125 9.375C5.24219 9.375 3.125 11.4922 3.125 14.0625V35.9375C3.125 38.5078 5.24219 40.625 7.8125 40.625H42.1875C44.7578 40.625 46.875 38.5078 46.875 35.9375V14.0625C46.875 11.4922 44.7578 9.375 42.1875 9.375H7.8125ZM7.8125 12.5H42.1875C43.0719 12.5 43.75 13.1781 43.75 14.0625V35.9375C43.75 36.8219 43.0719 37.5 42.1875 37.5H7.8125C6.92812 37.5 6.25 36.8219 6.25 35.9375V14.0625C6.25 13.1781 6.92812 12.5 7.8125 12.5ZM12.7438 17.1875C10.8281 17.1875 9.375 18.4016 9.375 20.5078V32.8125H15.5281C17.0281 32.8125 18.75 31.4141 18.75 29.5891V17.1875H12.7438ZM23.6812 17.1875C21.7719 17.1875 20.3125 18.4078 20.3125 20.5078V32.7156H26.4656C27.9609 32.7156 29.6875 31.3109 29.6875 29.4922V17.1875H23.6812ZM34.6187 17.1875C32.7094 17.1875 31.25 18.4078 31.25 20.5078V32.7156H37.3531C38.8422 32.7156 40.625 31.3109 40.625 29.4922V17.1875H34.6187ZM24.0234 21.875H28.5156V22.8516C27.4406 22.6016 26.3906 22.4609 25.8781 22.4609C24.7563 22.4609 23.8781 23.425 23.8781 24.6094C23.8781 25.7938 24.7563 26.7094 25.8781 26.7094C26.3922 26.7094 27.4406 26.6172 28.5156 26.3672V27.2953H24.0234C22.625 27.2953 21.4359 26.0859 21.4359 24.6094C21.4359 23.1328 22.625 21.875 24.0234 21.875ZM32.5688 21.875H38.3297C39.0328 21.875 39.6 22.4922 39.6 23.1937C39.6 23.8891 39.1297 24.5609 38.4281 24.5609C39.2219 24.5609 39.8438 25.1828 39.8438 25.8797C39.8438 26.5812 39.2219 27.2469 38.4281 27.2469H32.5688V21.875ZM14.7953 21.9234H17.4812V24.9516C17.4812 26.6359 15.3141 27.5391 13.7203 27.5391C11.9859 27.5391 10.4375 26.5078 10.1078 25.1953H11.2797C11.4203 25.9953 12.1953 26.5625 13.0859 26.5625C14.0688 26.5625 14.7953 25.8438 14.7953 24.9516V21.9234ZM34.7656 22.4125V24.2188H36.6219C36.8527 24.2113 37.072 24.1162 37.2351 23.9528C37.3982 23.7893 37.493 23.5699 37.5 23.3391C37.5 22.8766 37.0844 22.4125 36.6203 22.4125H34.7656ZM34.7656 24.9031V26.7094H36.6703C37.1391 26.7094 37.5484 26.2938 37.5484 25.8297C37.5484 25.3609 37.1406 24.9031 36.6703 24.9031H34.7656Z" fill="#FFE1CB"/>
</svg>
