<svg width="50" height="50" viewBox="0 0 50 50" fill="none" xmlns="http://www.w3.org/2000/svg">
    <g clip-path="url(#clip0)">
        <path d="M16.172 25.1906C16.172 26.25 15.3298 27.0562 14.2626 27.0562C13.4642 27.0562 12.8735 26.6047 12.8735 25.7547C12.8735 24.6953 13.6985 23.8453 14.7579 23.8453C15.5657 23.8453 16.1735 24.3406 16.1735 25.1906H16.172ZM6.9876 20.9812H6.57979C6.4501 20.9812 6.31885 21.0687 6.30166 21.2156L5.92822 23.5344L6.64072 23.5078C7.59541 23.5078 8.33291 23.3781 8.50635 22.275C8.70635 21.1109 7.96885 20.9812 6.9876 20.9812ZM31.6407 20.9812H31.2501C31.0938 20.9812 30.9892 21.0687 30.972 21.2156L30.6079 23.5344L31.3017 23.5078C32.4298 23.5078 33.211 23.2469 33.211 21.9453C33.2017 21.025 32.3782 20.9812 31.6392 20.9812H31.6407ZM50.0001 9.72188V40.2781C49.9997 41.3832 49.5605 42.4429 48.7791 43.2243C47.9977 44.0057 46.938 44.4449 45.8329 44.4453H4.16572C3.06064 44.4449 2.00094 44.0057 1.21953 43.2243C0.438124 42.4429 -0.00105072 41.3832 -0.00146484 40.2781V9.72188C-0.00105072 8.6168 0.438124 7.5571 1.21953 6.77569C2.00094 5.99428 3.06064 5.5551 4.16572 5.55469H45.8329C46.938 5.5551 47.9977 5.99428 48.7791 6.77569C49.5605 7.5571 49.9997 8.6168 50.0001 9.72188ZM11.1376 21.475C11.1376 19.6516 9.73135 19.0437 8.1251 19.0437H4.65322C4.54107 19.0446 4.43313 19.0866 4.34989 19.1618C4.26665 19.237 4.21391 19.3401 4.20166 19.4516L2.77822 28.3141C2.75166 28.4875 2.88291 28.6609 3.05635 28.6609H4.70635C4.94072 28.6609 5.15791 28.4094 5.18447 28.1656L5.5751 25.8563C5.6626 25.2313 6.72041 25.4484 7.1376 25.4484C9.62041 25.4484 11.1392 23.9734 11.1392 21.4734L11.1376 21.475ZM18.447 22.2391H16.797C16.4673 22.2391 16.4501 22.7172 16.4329 22.9516C15.9298 22.2141 15.2001 22.0828 14.3751 22.0828C12.2485 22.0828 10.6251 23.9484 10.6251 26.0062C10.6251 27.6984 11.6845 28.8016 13.3767 28.8016C14.1579 28.8016 15.1298 28.3766 15.6767 27.7687C15.6262 27.9443 15.5968 28.1253 15.5892 28.3078C15.5892 28.5078 15.6767 28.6547 15.8673 28.6547H17.361C17.5954 28.6547 17.7954 28.4031 17.8392 28.1594L18.7251 22.5781C18.7517 22.4125 18.6204 22.2391 18.447 22.2391ZM21.9626 30.7375L27.4923 22.6984C27.536 22.6547 27.536 22.6109 27.536 22.5516C27.536 22.4047 27.4063 22.2484 27.2579 22.2484H25.5907C25.5131 22.2515 25.4374 22.2727 25.3695 22.3105C25.3017 22.3482 25.2436 22.4013 25.2001 22.4656L22.9001 25.8516L21.9454 22.5969C21.9095 22.4979 21.8448 22.4119 21.7596 22.3501C21.6743 22.2882 21.5725 22.2534 21.4673 22.25H19.8438C19.6954 22.25 19.5657 22.4062 19.5657 22.5531C19.5657 22.6578 21.2579 27.4844 21.4063 27.9438C21.172 28.2734 19.6267 30.4266 19.6267 30.6875C19.6267 30.8437 19.7563 30.9656 19.9048 30.9656H21.572C21.65 30.9605 21.7257 30.9375 21.7934 30.8985C21.8612 30.8595 21.919 30.8055 21.9626 30.7406V30.7375ZM35.7907 21.475C35.7907 19.6516 34.3845 19.0437 32.7782 19.0437H29.3313C29.2159 19.0428 29.104 19.0836 29.0162 19.1585C28.9284 19.2334 28.8705 19.3374 28.8532 19.4516L27.447 28.3062C27.4298 28.4797 27.5595 28.6531 27.7251 28.6531H29.5048C29.6782 28.6531 29.8079 28.5234 29.8517 28.375L30.2423 25.8578C30.3298 25.2328 31.3892 25.45 31.8048 25.45C34.2704 25.45 35.7892 23.975 35.7892 21.475H35.7907ZM43.0985 22.2391H41.4485C41.1189 22.2391 41.1017 22.7172 41.0751 22.9516C40.597 22.2141 39.8595 22.0828 39.0173 22.0828C36.8907 22.0828 35.2673 23.9484 35.2673 26.0062C35.2673 27.6984 36.3267 28.8016 38.0189 28.8016C38.8267 28.8016 39.7985 28.3766 40.3189 27.7687C40.2923 27.8984 40.2313 28.1766 40.2313 28.3078C40.2313 28.5078 40.3189 28.6547 40.5095 28.6547H42.011C42.2454 28.6547 42.4454 28.4031 42.4892 28.1594L43.3751 22.5781C43.4017 22.4125 43.2704 22.2391 43.097 22.2391H43.0985ZM47.222 19.3484C47.222 19.175 47.0923 19.0453 46.9439 19.0453H45.3376C45.2079 19.0453 45.0767 19.15 45.0595 19.2797L43.6532 28.3078L43.6282 28.3516C43.6282 28.5078 43.7579 28.6547 43.9314 28.6547H45.3642C45.5814 28.6547 45.7985 28.4031 45.8157 28.1594L47.222 19.375V19.3484ZM39.4095 23.8453C38.3501 23.8453 37.5251 24.6875 37.5251 25.7547C37.5251 26.5969 38.1329 27.0562 38.9314 27.0562C39.9735 27.0562 40.8157 26.2578 40.8157 25.1906C40.8251 24.3406 40.2173 23.8453 39.4095 23.8453Z" fill="#FFE1CB"/>
    </g>
    <defs>
        <clipPath id="clip0">
            <rect width="50" height="50" fill="white"/>
        </clipPath>
    </defs>
</svg>
