<svg width="50" height="50" viewBox="0 0 50 50" fill="none" xmlns="http://www.w3.org/2000/svg">
    <g clip-path="url(#clip0)">
        <path d="M2.29681 9.30005C1.01231 9.30005 -0.0297852 10.3407 -0.0297852 11.625V38.375C-0.0297852 39.6595 1.01241 40.7 2.29681 40.7H47.6452C48.9297 40.7 49.9702 39.6593 49.9702 38.375V11.625C49.9702 10.3406 48.9296 9.30005 47.6452 9.30005H2.29681ZM26.2937 18.1391C26.3276 18.1382 26.3611 18.1391 26.3952 18.1391C28.5787 18.1391 30.3484 19.9084 30.3484 22.0922C30.3484 24.276 28.5787 26.0469 26.3952 26.0469C24.2118 26.0469 22.4421 24.276 22.4421 22.0922C22.4421 19.9426 24.1574 18.1932 26.2937 18.1391ZM13.8155 18.3125C14.5993 18.3125 15.3176 18.5815 15.9171 19.1063L15.1874 20.0625C14.8239 19.6549 14.4801 19.4828 14.0624 19.4828C13.461 19.4828 13.0234 19.8246 13.0234 20.275C13.0234 20.6613 13.2691 20.8668 14.1062 21.1766C15.6927 21.7569 16.1624 22.2715 16.1624 23.4078C16.1624 24.7926 15.1463 25.7563 13.6968 25.7563C12.6357 25.7563 11.8628 25.3372 11.2203 24.3938L12.1218 23.5266C12.4428 24.1478 12.9785 24.4797 13.6437 24.4797C14.2658 24.4797 14.7265 24.0514 14.7265 23.4719C14.7265 23.1715 14.588 22.9134 14.3093 22.7313C14.169 22.6451 13.8911 22.5161 13.3453 22.3235C12.0353 21.8517 11.5859 21.348 11.5859 20.3625C11.5859 19.1919 12.5503 18.3125 13.8156 18.3125H13.8155ZM20.3765 18.3125C20.9765 18.3125 21.4812 18.4408 22.0937 18.75V20.3844C21.5135 19.8195 21.0092 19.5828 20.3437 19.5828C19.0356 19.5828 18.0077 20.6626 18.0077 22.0297C18.0077 23.472 19.0045 24.486 20.4093 24.486C21.0417 24.486 21.5359 24.262 22.0937 23.7063V25.3407C21.4594 25.6381 20.9443 25.7563 20.3437 25.7563C18.2198 25.7563 16.5702 24.1323 16.5702 22.0391C16.5702 19.9684 18.2634 18.3125 20.3765 18.3125H20.3765ZM2.73271 18.4297H4.79522C7.07411 18.4297 8.66241 19.8876 8.66241 21.9813C8.66241 23.0252 8.17621 24.0349 7.35461 24.7047C6.66296 25.2701 5.87532 25.5235 4.78432 25.5235H2.73271V18.4297ZM9.30147 18.4297H10.639V25.5235H9.30147V18.4297ZM29.7671 18.4297H31.2874L33.1906 23.2282L35.1187 18.4297H36.6281L33.5452 25.7563H32.7952L29.7671 18.4297ZM37.2093 18.4297H41.1624V19.6313H38.6015V21.2063H41.0687V22.4078H38.6015V24.3219H41.1624V25.5235H37.2093V18.4297ZM42.1515 18.4297H44.2234C45.8357 18.4297 46.7609 19.1953 46.7609 20.5235C46.7609 21.6096 46.181 22.3223 45.128 22.5344L47.3843 25.5234H45.664L43.7296 22.6734H43.5468V25.5234H42.1515V18.4298V18.4297ZM43.5562 19.5469V21.7063H43.9609C44.8449 21.7063 45.314 21.3213 45.314 20.6047C45.314 19.911 44.8449 19.5469 43.9827 19.5469H43.5562ZM4.13741 19.625V24.3282H4.51397C5.42297 24.3282 5.99861 24.1563 6.44051 23.7625C6.92736 23.3355 7.21866 22.6532 7.21866 21.9703C7.21866 21.2891 6.92736 20.6273 6.44051 20.2C5.97601 19.785 5.42291 19.625 4.51401 19.625H4.13741ZM49.3609 26.3344C49.3609 26.3344 49.3749 33.953 49.3437 37.9578C49.3409 38.3083 49.2126 38.8632 48.814 39.325C48.4154 39.7869 47.7953 40.0029 47.4249 40.0016C47.0545 40.0003 11.2202 40.0016 11.2202 40.0016C35.8148 35.7587 49.3609 26.3344 49.3609 26.3344H49.3609Z" fill="#FFE1CB"/>
    </g>
    <defs>
        <clipPath id="clip0">
            <rect width="50" height="50" fill="white"/>
        </clipPath>
    </defs>
</svg>
