<svg width="80" height="80" viewBox="0 0 80 80" fill="none" xmlns="http://www.w3.org/2000/svg">
    <path d="M40 7C21.8359 7 7 20.3867 7 37C7 46.3711 11.7969 54.6719 19.168 60.1602C18.2305 63.5195 16.6797 65.6914 15.2188 67.2773C14.4492 68.1172 13.7109 68.8125 13.1133 69.5195C12.5195 70.2266 12 71.0156 12 72V73H13C19.8203 73 26.668 68.793 30.8125 65.7852C33.7344 66.5586 36.8086 67 40 67C58.1641 67 73 53.6133 73 37C73 20.3867 58.1641 7 40 7ZM40 9C57.1836 9 71 21.582 71 37C71 52.418 57.1836 65 40 65C36.8203 65 33.7539 64.5664 30.8672 63.7617L30.3984 63.6289L30.0039 63.9219C26.4062 66.5625 20.3789 70.0977 14.7031 70.7461C15.1875 70.1836 15.8945 69.5 16.6953 68.6289C18.3477 66.832 20.3164 64.2305 21.3164 60.1133L21.4805 59.4531L20.9219 59.0625C13.6484 53.918 9 45.9531 9 37C9 21.582 22.8164 9 40 9ZM40.0586 12C39.5039 12 39.0547 12.4453 39.0547 13C39.0547 13.5508 39.5 14 40.0508 14C40.6055 14 41.0547 13.5547 41.0547 13C41.0547 12.4492 40.6094 12 40.0586 12ZM34.793 12.5117C34.7227 12.5078 34.6562 12.5156 34.5938 12.5312C34.0508 12.6367 33.6992 13.1602 33.8047 13.7031C33.9102 14.2461 34.4375 14.5977 34.9805 14.4883C35.5195 14.3828 35.8711 13.8594 35.7656 13.3164C35.6719 12.8516 35.2656 12.5117 34.793 12.5117ZM45.3438 12.5312C44.8594 12.5156 44.4336 12.8555 44.3398 13.332C44.2305 13.875 44.5781 14.4023 45.1211 14.5117C45.6641 14.6172 46.1914 14.2695 46.2969 13.7266C46.4062 13.1836 46.0586 12.6562 45.5156 12.5469C45.4609 12.5391 45.4023 12.5312 45.3438 12.5312ZM29.7266 14.0352C29.5938 14.0352 29.4609 14.0625 29.3359 14.1094C29.0898 14.2109 28.8945 14.4062 28.793 14.6523C28.6914 14.8984 28.6914 15.1719 28.793 15.418C29.0039 15.9297 29.5859 16.1719 30.0977 15.9609C30.6094 15.75 30.8516 15.168 30.6406 14.6562C30.4883 14.2852 30.1289 14.043 29.7266 14.0352ZM50.4062 14.0781C49.9922 14.0664 49.6172 14.3125 49.457 14.6914C49.3555 14.9375 49.3555 15.2109 49.457 15.457C49.5547 15.7031 49.75 15.8984 49.9961 16C50.2422 16.1016 50.5156 16.1016 50.7617 16C51.0078 15.9023 51.2031 15.707 51.3047 15.4609C51.5156 14.9531 51.2734 14.3672 50.7656 14.1562C50.6523 14.1055 50.5273 14.0781 50.4062 14.0781ZM25.0586 16.5195C24.8555 16.5195 24.6602 16.5781 24.4883 16.6875C24.0312 16.9961 23.9062 17.6172 24.2148 18.0781C24.5195 18.5352 25.1406 18.6602 25.5977 18.3555C26.0586 18.0508 26.1836 17.4297 25.875 16.9688C25.6953 16.6953 25.3867 16.5273 25.0586 16.5195ZM55.0625 16.5781C54.7227 16.5703 54.4023 16.7383 54.2148 17.0195C53.9062 17.4805 54.0273 18.1016 54.4844 18.4062C54.707 18.5547 54.9766 18.6094 55.2383 18.5586C55.4961 18.5078 55.7266 18.3555 55.875 18.1367C56.1836 17.6758 56.0586 17.0547 55.6016 16.75C55.4414 16.6406 55.2578 16.582 55.0625 16.5781ZM20.9648 19.8711C20.6914 19.8672 20.4336 19.9727 20.2383 20.1602C19.8477 20.5508 19.8477 21.1836 20.2383 21.5781C20.6289 21.9688 21.2617 21.9688 21.6523 21.5781C22.043 21.1875 22.043 20.5547 21.6562 20.1641C21.4688 19.9805 21.2227 19.875 20.9648 19.8711ZM59.1445 19.9492C58.875 19.9414 58.6172 20.0469 58.4219 20.2383C58.0312 20.6289 58.0312 21.2617 58.4219 21.6523C58.6055 21.8398 58.8633 21.9453 59.1289 21.9453C59.3945 21.9492 59.6484 21.8438 59.8359 21.6562C60.2266 21.2656 60.2266 20.6328 59.8398 20.2383C59.6523 20.0547 59.4062 19.9531 59.1445 19.9492ZM40.1133 21.8125C36.875 21.8125 34.2422 22.7656 32.4141 24.4492C30.5859 26.1328 29.6055 28.5156 29.5156 31.168L29.4805 32.2031H36.2695L36.3281 31.2656C36.3984 30.2266 36.7617 29.4727 37.332 28.9492C37.9062 28.4258 38.7227 28.0977 39.8438 28.0977C40.9375 28.0977 41.7695 28.4219 42.3125 28.8906C42.8594 29.3594 43.1523 29.9727 43.1523 30.7695C43.1523 31.6445 43.0039 32.1406 42.6016 32.6875C42.1992 33.2305 41.457 33.8281 40.2305 34.5664L40.2422 34.5625C38.7422 35.4453 37.5859 36.4258 36.8438 37.6719C36.0977 38.918 35.8164 40.3867 35.9141 42.0625V42.0664L35.9492 44.4023H42.6914V42.2344C42.6914 41.3438 42.8203 40.8594 43.2109 40.3281C43.6016 39.8008 44.3477 39.2031 45.6445 38.4414V38.4375H45.6484C48.6289 36.6641 50.4844 34.0547 50.4844 30.5859C50.4844 28.043 49.4023 25.7891 47.5469 24.2344C45.6953 22.6797 43.1133 21.8125 40.1133 21.8125ZM40.1133 23.8125C42.7305 23.8125 44.8359 24.5664 46.2656 25.7656C47.6914 26.9648 48.4844 28.5977 48.4844 30.5859C48.4844 33.3945 47.2227 35.1758 44.625 36.7188C43.2383 37.5352 42.2617 38.25 41.6016 39.1445C40.9414 40.043 40.6914 41.0938 40.6914 42.2344V42.4023H37.9219L37.9102 41.9688V41.9492C37.8281 40.5508 38.0469 39.5586 38.5586 38.6992C39.0703 37.8359 39.9258 37.0664 41.2539 36.2852L41.2617 36.2812H41.2656C42.582 35.4844 43.543 34.7695 44.207 33.8789C44.8711 32.9883 45.1523 31.9258 45.1523 30.7695C45.1523 29.4336 44.5859 28.207 43.6211 27.375C42.6562 26.5469 41.3359 26.0977 39.8438 26.0977C38.3203 26.0977 36.9648 26.5742 35.9844 27.4727C35.2266 28.168 34.8008 29.1406 34.5625 30.2031H31.7305C31.9883 28.4883 32.6055 26.9922 33.7656 25.9219C35.1719 24.625 37.2617 23.8125 40.1133 23.8125ZM17.6016 23.9531C17.2617 23.9492 16.9414 24.1133 16.75 24.3945C16.6016 24.6172 16.5469 24.8867 16.5977 25.1484C16.6484 25.4062 16.8047 25.6367 17.0234 25.7852C17.2422 25.9336 17.5156 25.9883 17.7734 25.9375C18.0352 25.8867 18.2656 25.7305 18.4102 25.5117C18.7188 25.0547 18.5977 24.4336 18.1406 24.125C17.9805 24.0195 17.793 23.9609 17.6016 23.9531ZM62.4961 24.0469C62.293 24.043 62.0938 24.1016 61.9258 24.2148C61.4648 24.5195 61.3438 25.1406 61.6484 25.5977C61.9531 26.0586 62.5742 26.1836 63.0312 25.8789C63.4922 25.5742 63.6172 24.9531 63.3125 24.4922C63.1289 24.2188 62.8242 24.0508 62.4961 24.0469ZM15.0977 28.6172C14.6875 28.6055 14.3125 28.8516 14.1523 29.2344C14.0508 29.4766 14.0508 29.7539 14.1523 30C14.25 30.2422 14.4453 30.4375 14.6914 30.543C15.1992 30.7539 15.7852 30.5117 16 30C16.1016 29.7578 16.1016 29.4805 16 29.2344C15.8984 28.9922 15.7031 28.7969 15.457 28.6914C15.3438 28.6445 15.2227 28.6211 15.0977 28.6172ZM64.9727 28.7188C64.8398 28.7188 64.707 28.7461 64.582 28.7969C64.0742 29.0078 63.8281 29.5898 64.0391 30.1016C64.1406 30.3477 64.3359 30.543 64.5781 30.6445C64.8242 30.7461 65.1016 30.7461 65.3438 30.6445C65.8555 30.4336 66.0977 29.8516 65.8906 29.3398C65.7344 28.9688 65.375 28.7266 64.9727 28.7188ZM13.5586 33.6797C13.0703 33.6641 12.6445 34.0039 12.5469 34.4844C12.4961 34.7422 12.5469 35.0117 12.6953 35.2344C12.8438 35.4531 13.0703 35.6094 13.332 35.6602C13.8711 35.7695 14.3984 35.418 14.5078 34.875C14.6172 34.3359 14.2656 33.8086 13.7227 33.6992C13.668 33.6875 13.6133 33.6797 13.5586 33.6797ZM66.5 33.7891C66.4297 33.7891 66.3633 33.793 66.2969 33.8086C66.0391 33.8594 65.8086 34.0117 65.6602 34.2305C65.5156 34.4531 65.4609 34.7227 65.5117 34.9844C65.6172 35.5234 66.1445 35.875 66.6875 35.7695C67.2266 35.6641 67.5781 35.1367 67.4727 34.5938C67.3789 34.1289 66.9727 33.793 66.5 33.7891ZM13 38.9453C12.4492 38.9453 12 39.3906 12 39.9414C12 40.4961 12.4453 40.9453 13 40.9453C13.5508 40.9453 14 40.5 14 39.9492C14 39.3945 13.5547 38.9453 13 38.9453ZM67 39.0508C66.4492 39.0508 66.0039 39.5 66 40.0508C66 40.6016 66.4492 41.0508 67 41.0508C67.5508 41.0547 68 40.6055 68 40.0547C68.0039 39.7891 67.8984 39.5352 67.7109 39.3477C67.5234 39.1602 67.2656 39.0508 67 39.0508ZM14.2656 43.7812C14.1289 43.7773 14 43.8047 13.875 43.8555C13.6289 43.957 13.4336 44.1523 13.3359 44.3984C13.2344 44.6445 13.2344 44.918 13.3359 45.1641C13.4375 45.4102 13.6328 45.6055 13.8789 45.7031C14.125 45.8047 14.3984 45.8047 14.6445 45.7031C15.1562 45.4883 15.3945 44.9023 15.1836 44.3945C15.0273 44.0234 14.6641 43.7812 14.2656 43.7812ZM65.7656 43.7812C65.3516 43.7695 64.9766 44.0156 64.8164 44.3945C64.6055 44.9062 64.8477 45.4922 65.3555 45.7031C65.8633 45.9141 66.4492 45.6758 66.6602 45.168C66.7656 44.9219 66.7656 44.6445 66.6641 44.3984C66.5625 44.1562 66.3672 43.9609 66.125 43.8594C66.0078 43.8086 65.8867 43.7852 65.7656 43.7812ZM39.5352 45.6445C38.3008 45.6445 37.1758 46.0469 36.375 46.8164C35.5742 47.5898 35.1367 48.7031 35.1367 49.9258C35.1367 51.1406 35.5742 52.2461 36.375 53.0156C37.1758 53.7852 38.3008 54.1875 39.5352 54.1875C40.7891 54.1875 41.918 53.7852 42.7188 53.0156C43.5195 52.2422 43.9414 51.1328 43.9414 49.9258C43.9414 48.7109 43.5195 47.5977 42.7188 46.8203C41.9219 46.0469 40.7891 45.6445 39.5352 45.6445ZM39.5352 47.6445C40.3789 47.6445 40.9492 47.8867 41.3281 48.2539C41.707 48.625 41.9414 49.1523 41.9414 49.9258C41.9414 50.6875 41.7109 51.207 41.3281 51.5742C40.9492 51.9414 40.3789 52.1875 39.5352 52.1875C38.7227 52.1875 38.1445 51.9414 37.7578 51.5742C37.3711 51.2031 37.1367 50.6797 37.1367 49.9258C37.1367 49.1562 37.3711 48.6328 37.7617 48.2617C38.1484 47.8867 38.7227 47.6445 39.5352 47.6445ZM62.8008 48.3125C62.4609 48.3047 62.1406 48.4727 61.9531 48.7539C61.6445 49.2148 61.7656 49.8359 62.2227 50.1406C62.4414 50.2891 62.7148 50.3438 62.9727 50.293C63.2344 50.2422 63.4648 50.0898 63.6094 49.8711C63.918 49.4102 63.7969 48.7891 63.3398 48.4844C63.1797 48.375 62.9922 48.3164 62.8008 48.3125ZM17.2305 48.3164C17.0273 48.3164 16.8281 48.375 16.6602 48.4844C16.4414 48.6328 16.2891 48.8633 16.2383 49.125C16.1875 49.3828 16.2422 49.6562 16.3906 49.875C16.5352 50.0938 16.7656 50.2461 17.0273 50.2969C17.2891 50.3477 17.5586 50.293 17.7773 50.1445C18.2344 49.8398 18.3555 49.2188 18.0469 48.7617C17.8672 48.4844 17.5586 48.3203 17.2305 48.3164ZM20.8867 52.0547C20.6172 52.0508 20.3555 52.1562 20.1641 52.3438C19.7734 52.7344 19.7734 53.3672 20.1602 53.7617C20.5508 54.1523 21.1836 54.1523 21.5781 53.7617C21.9688 53.3711 21.9688 52.7383 21.5781 52.3477C21.3945 52.1641 21.1484 52.0586 20.8867 52.0547ZM59.0703 52.1289C58.8008 52.125 58.5391 52.2305 58.3477 52.4219C58.1602 52.6055 58.0547 52.8633 58.0547 53.1289C58.0508 53.3945 58.1562 53.6484 58.3438 53.8359C58.7344 54.2266 59.3672 54.2266 59.7617 53.8398C60.1523 53.4492 60.1523 52.8164 59.7617 52.4219C59.5781 52.2383 59.332 52.1328 59.0703 52.1289ZM54.9688 55.4844C54.7656 55.4805 54.5703 55.5391 54.4023 55.6484C53.9414 55.9531 53.8164 56.5742 54.125 57.0352C54.4297 57.4961 55.0508 57.6211 55.5117 57.3125C55.9688 57.0078 56.0938 56.3867 55.7891 55.9258C55.6055 55.6523 55.3008 55.4844 54.9688 55.4844ZM50.293 57.9688C50.1562 57.9688 50.0234 57.9922 49.9023 58.043C49.6562 58.1445 49.4609 58.3398 49.3555 58.582C49.2539 58.8281 49.2539 59.1055 49.3555 59.3477C49.457 59.5938 49.6523 59.7891 49.8945 59.8906C50.1406 59.9922 50.418 59.9922 50.6602 59.8906C51.1719 59.6836 51.4141 59.0977 51.2031 58.5898C51.0508 58.2148 50.6914 57.9727 50.293 57.9688ZM34.707 59.4688C34.2188 59.457 33.7969 59.793 33.6992 60.2695C33.5898 60.8125 33.9414 61.3398 34.4844 61.4492C35.0234 61.5586 35.5508 61.207 35.6602 60.668C35.7695 60.125 35.418 59.5977 34.875 59.4883C34.8203 59.4766 34.7656 59.4688 34.707 59.4688ZM45.2188 59.4961C45.1523 59.4961 45.0859 59.5 45.0195 59.5156C44.7617 59.5664 44.5312 59.7188 44.3828 59.9375C44.2344 60.1602 44.1797 60.4297 44.2344 60.6875C44.3398 61.2305 44.8633 61.582 45.4062 61.4766C45.9492 61.3711 46.3008 60.8438 46.1953 60.3008C46.1016 59.8359 45.6953 59.5 45.2188 59.4961ZM39.9492 60C39.3984 60 38.9492 60.4492 38.9492 61C38.9453 61.5508 39.3945 62 39.9453 62C40.2109 62.0039 40.4648 61.8984 40.6523 61.7109C40.8398 61.5234 40.9492 61.2656 40.9492 61C40.9492 60.4492 40.5 60.0039 39.9492 60Z" fill="#343434"/>
</svg>
