<svg width="144" height="123" viewBox="0 0 144 123" fill="none" xmlns="http://www.w3.org/2000/svg">
    <path fill-rule="evenodd" clip-rule="evenodd" d="M143.368 19.2104C121.895 29.8829 111.159 42.4229 111.159 56.8308C120.311 57.8981 127.88 61.6778 133.864 68.1703C139.848 74.6627 142.84 82.1778 142.84 90.7158C142.84 99.7875 139.936 107.436 134.128 113.662C128.32 119.887 121.015 123 112.215 123C102.358 123 93.8216 118.953 86.6051 110.86C79.3887 102.767 75.7805 92.9393 75.7805 81.3774C75.7805 46.6918 94.9654 19.5663 133.336 0L143.368 19.2104ZM67.588 19.2104C45.9386 29.8829 35.1141 42.4229 35.1141 56.8308C44.4427 57.8981 52.0991 61.6778 58.0834 68.1703C64.0678 74.6627 67.06 82.1778 67.06 90.7158C67.06 99.7875 64.1118 107.436 58.2155 113.662C52.3191 119.887 44.9707 123 36.1701 123C26.3135 123 17.8211 118.953 10.6926 110.86C3.56418 102.767 0 92.9393 0 81.3774C0 46.6918 19.0969 19.5663 57.2914 0L67.588 19.2104Z" fill="#FE9456"/>
</svg>
