<svg width="304" height="767" viewBox="0 0 304 767" fill="none" xmlns="http://www.w3.org/2000/svg">
    <path d="M118.133 2.44706C134.422 -5.69788 146.64 8.963 146.64 10.592C152.613 10.049 166.839 11.8952 175.962 23.6239C187.364 38.2848 171.889 83.0819 171.889 96.9283C171.889 108.005 183.292 106.431 188.993 104.259C184.649 112.404 168.305 128.205 137.68 126.25C99.3992 123.807 113.246 77.3804 103.472 60.2761C93.6977 43.1717 101.843 10.592 118.133 2.44706Z" fill="#FE9456"/>
    <path d="M97.7704 113.218C106.893 106.051 105.915 84.1679 104.286 74.1225L131.979 65.9775C129.535 80.0954 126.115 109.797 131.979 115.662C139.309 122.992 164.559 117.291 174.333 121.363C184.106 125.436 209.356 237.836 211.799 241.908C214.243 245.981 223.202 255.754 228.904 267.157C234.605 278.56 255.782 355.937 259.854 360.01C263.927 364.082 285.104 362.453 295.692 369.784C304.163 375.648 303.565 391.232 302.208 398.291C299.222 395.304 292.597 388.354 289.991 384.444C287.384 380.535 272.615 378.471 265.556 377.928C270.714 382.815 280.38 392.752 277.773 393.404C274.515 394.218 255.782 382.001 246.822 375.485C237.863 368.969 197.953 267.972 195.509 259.012C193.555 251.845 170.26 202.269 158.857 178.378L134.422 170.233L57.0455 187.337C52.7016 191.681 43.525 202.161 41.5702 209.328C39.1267 218.288 70.8921 253.311 77.4079 272.044C83.9237 290.778 50.5296 327.43 44.0137 318.47C37.4977 309.511 46.4571 293.221 50.5296 285.891C54.6021 278.56 59.489 273.673 59.489 267.157C59.489 260.641 1.66016 224.804 0.0311722 216.659C-1.59781 208.514 61.1182 122.992 70.8921 119.734C80.666 116.476 86.3675 122.178 97.7704 113.218Z" fill="#FFD3B2"/>
    <path d="M151.527 711.871V689.065L174.333 683.363V706.984C174.061 708.884 171.726 713.011 164.559 714.314C157.391 715.617 152.884 713.228 151.527 711.871Z" fill="#FFD3B2"/>
    <path d="M247.637 704.54L238.678 684.178L260.669 678.476L263.927 700.468L247.637 704.54Z" fill="#FFD3B2"/>
    <path d="M74.9645 118.919C77.6794 118.376 83.761 117.453 86.3674 118.105C82.5664 126.25 75.7789 143.517 79.0369 147.427C83.1093 152.314 120.576 152.314 126.277 151.499C130.839 150.848 137.409 129.508 140.124 118.919C141.753 118.376 145.662 117.291 148.269 117.291C150.875 117.291 153.699 118.92 154.785 119.734C151.527 126.793 144.522 144.006 142.567 156.386C140.613 168.767 151.527 172.948 157.228 173.491L161.301 184.079C157.771 187.066 148.92 197.111 141.753 213.401C134.585 229.691 133.336 250.053 133.608 258.198L77.4079 264.714C77.1364 261.456 76.7563 252.985 77.4079 245.166C78.0595 237.347 68.9915 207.156 64.376 193.038C60.3035 193.581 51.5071 190.921 48.9007 175.934C46.2943 160.947 65.1905 131.68 74.9645 118.919Z" fill="#FE9456"/>
    <path d="M108.359 250.053C99.8881 250.705 84.1955 248.152 77.4081 246.795V263.899C72.5211 275.574 61.7698 309.837 57.8602 353.494C52.9733 408.065 102.657 534.311 106.73 535.94C110.802 537.569 112.431 538.384 116.504 542.456C119.762 545.714 140.124 642.639 149.898 690.694C152.07 691.508 157.391 693.137 161.301 693.137C165.21 693.137 171.618 689.879 174.333 688.25C173.79 649.155 172.052 568.194 169.446 557.117C166.188 543.271 146.64 525.352 142.568 517.207C139.31 510.691 123.834 408.065 116.504 357.566L121.391 353.494C140.667 412.952 179.708 533.171 181.663 538.384C184.107 544.9 184.921 564.447 186.55 575.85C187.853 584.973 221.302 654.585 237.863 688.25C240.307 688.793 246.66 689.554 252.524 688.25C258.388 686.947 261.484 682.82 262.298 680.92C256.597 649.698 244.379 583.995 241.121 570.963C237.049 554.673 211.799 535.94 204.469 525.352C197.139 514.763 204.469 387.702 204.469 378.743C204.469 369.783 175.147 300.552 164.559 285.076C156.088 272.696 142.025 261.456 136.052 257.383C135.509 256.569 134.26 254.451 133.608 252.496C132.957 250.542 133.337 246.795 133.608 245.166C128.721 246.524 116.83 249.401 108.359 250.053Z" fill="#6D9FCD"/>
    <path d="M114.875 28.5108C120.087 26.5561 128.992 25.5244 132.793 25.2529C132.25 29.0538 131.49 37.6332 132.793 41.5427C134.097 45.4523 137.68 50.7737 139.309 52.9456C142.839 53.2171 149.246 55.7149 146.64 63.534C144.033 71.3532 137.409 70.593 134.422 69.2355C125.734 75.4799 106.078 86.5028 96.9557 80.6384C87.8334 74.7741 96.9557 51.0452 102.657 39.9137C104.558 36.9273 109.662 30.4656 114.875 28.5108Z" fill="#FFE1CB"/>
    <path d="M147.454 701.282C149.626 702.64 156.088 705.844 164.559 707.798L174.333 706.169C175.69 707.798 179.382 712.522 183.292 718.387C187.202 724.251 189.808 732.776 190.622 736.306C190.894 738.206 190.297 742.822 185.735 746.08C180.034 750.152 162.93 742.822 153.97 742.007C145.011 741.193 121.39 749.338 114.06 748.523C106.73 747.709 90.4398 744.451 90.4398 734.677C90.4398 724.903 113.246 724.088 123.834 722.459C132.305 721.156 143.11 707.798 147.454 701.282Z" fill="#FE9456"/>
    <path d="M254.967 697.21C249.755 699.165 245.193 705.083 243.564 707.798C246.279 711.871 251.872 721.156 252.524 725.717C253.338 731.418 252.524 733.862 252.524 737.934C252.524 742.007 279.402 768.885 288.362 766.442C297.321 763.998 295.692 744.45 294.878 736.306C294.063 728.161 278.588 715.129 275.33 711.871C272.723 709.264 269.9 701.554 268.814 698.024C266.37 696.938 260.18 695.255 254.967 697.21Z" fill="#FE9456"/>
</svg>
